<mxfile host="app.diagrams.net" modified="2023-10-02T15:04:53.158Z" agent="Mozilla/5.0 (Windows NT 10.0; Win64; x64) AppleWebKit/537.36 (KHTML, like Gecko) Chrome/117.0.0.0 Safari/537.36 Edg/117.0.2045.36" etag="X2YOUMjqud_3-cj9vJyN" version="22.0.0" type="github">
  <diagram name="PÃ¡gina-1" id="_WKy5hyCKDBeSHOf2f6W">
    <mxGraphModel dx="2486" dy="2777" grid="1" gridSize="10" guides="1" tooltips="1" connect="1" arrows="1" fold="1" page="1" pageScale="1" pageWidth="827" pageHeight="1169" math="0" shadow="0">
      <root>
        <mxCell id="0" />
        <mxCell id="1" parent="0" />
        <mxCell id="5z_EyvK3sEdfh1NYNkOx-4" value="&lt;div&gt;&lt;div style=&quot;color: rgb(204, 204, 204); background-color: rgb(31, 31, 31); font-family: Consolas, &amp;quot;Courier New&amp;quot;, monospace; font-size: 14px; line-height: 19px;&quot;&gt;&lt;div&gt;&lt;br&gt;&lt;/div&gt;&lt;/div&gt;&lt;/div&gt;" style="text;html=1;align=center;verticalAlign=middle;whiteSpace=wrap;rounded=0;" parent="1" vertex="1">
          <mxGeometry x="-1530" y="-1860" width="680" height="30" as="geometry" />
        </mxCell>
        <mxCell id="VHU-Zfqz6ojAQrJFNTlU-1" value="" style="shape=image;verticalLabelPosition=bottom;labelBackgroundColor=default;verticalAlign=top;aspect=fixed;imageAspect=0;image=data:image/png,iVBORw0KGgoAAAANSUhEUgAABT8AAAJXCAYAAABVMCCDAAAAAXNSR0IArs4c6QAAAARnQU1BAACxjwv8YQUAAAAJcEhZcwAADsMAAA7DAcdvqGQAAO9vSURBVHhe7N0JgBXVnS/+Hy64bxljog7NKig0STTRpyZs2g2NRNk0k0nmBQRf7AZGEIHYmjcx81RQkKCi3WYEMZPM5D8qoAl2QzdLw+g4ajCRRRsb6G4jRscI7ghq/8/v1Kl7T517qm7dre+t29+P/uhbVae2U6e2c0/V7XbgwIEOAgAAAAAAAAAAACgSq1evpnHjxtERqhsAAAAAAAAAAACgqGS95ecvnvhv9QkAouS2KSPpvffeU10AAAAAAAAAANHltvzMWuWnW+nJFSgAEC1Nf9xNG7fuphsn/i/VBwAAAAAAAAAgurL62DtXfHKlJyo+AaJp2Df60ogL+qLlNgAAAAAAAAAUlYwrP92KTwAAAAAAAAAAAIBCklHlJyo+AQAAAAAAAAAAoFClXfmJis8CsGkudevWjbqNXkZtqldBKNTlAgAAAAAAAACALiWtys/Ais+2ZTSaK748MZc2qcEFz13+Qqq4s+bpaFq2Ww1PJpN18pt3p2TOJpqbMG8VUaxYLcSyBQAAAAAAAABQxFKu/Azd4rPiYWrt6KCOjo00hxbRiE6rMCtisTzlqKOpfVX/zmDOu6fqn1PDaaGa58Y5Tp85G9Uy1E2lTlmECNErh3V+/QEAAAAAAAAAouDcc8+lU0891Rrjx49XqexSqvxM71H34bRQ1lzV03VLnfafbctGeypkRsdqRdto2eh4f465bpNR91FqN3iA208l2jTXO47vfMxpccjWeGL+ldeJJRXqr6Ne2jjmtGLLpfOdrsN3GrHHxOfSXF7/NFsG2tc3/DrFt0MICS1C/Sq3/bdpqDwNYsu3oOUK3D4+y5m1bSr+5mI7aLhS2MXT0f8yfTgAAAAAAAAAQFS8+uqrNHjwYNUV93d/93e0atUq1WUXuvIzo3d8Dh9DsuHe9t3Utmku9bqunioebo216Ku/rlJWULUtqyQxKN66T8TC4WI8rkgasYgHqP7cmjSJgPnEqNaMTt3sdbR0U0+aWvswVWjD6riJo2darfSwSLBoREBLVmO6lZwwzDTqF9EiWTvmQ1WaOZVkxqsEfNc3zDr55I/OnHfPqVQnxotvj3q6rjKx0nZvwDZNKU+D6PkWZrkStntA2XNlvE3PpRnZ2A5J8DRcqPgEAAAAAAAAgGKxZcsWuvzyy1UX0YwZM+ihhx5SXf5CVX5m88eNGtcskn/rr+slK2e4TlN00at7ZW9p0Qinks1tRbdJjTNnjFsbNZwWemqmErnjBM0nLHdapX35QeueVHY1V2HV0+ONwTVUw8dwTZlIKWYaahqqUsz3kW53uIyFIhfiwuSrLuX8sczbbWnbrdsIcqbmz2+bppqnVka+pbJcJnM5TdnepilvhxDMik5UfAIAAAAAAABAMXjiiSfo+9//Pv385z+n22+/XfUNlrTyMysVn5vWOJVQpX3JfU2l3sKOg+sye06to1ZuPqdwRVS6jwC7bPMpZqmub7r5wxWMXFHntFj0b4nbOwfbNEjY5TLlouylIpvllCtRdWY3AAAAAAAAAEBU1dbW0syZM1VXcoGVn9lp8bmJ5srmbBX08IzhsZZzi+5KfESacSUUV/7oFVGxcda4zfHENPWmefw4vfroSjafVLjT2r6bp9RGjY/zc8wVdHWZtX1mjNuqj1uspjuNsMpSXN9s5Y/T6jFY0DbNVX6EWS6TbTlN2d6m2doOLr2ik9fFhQpQAAAAAAAAAOiKfCs/M674jL0jkh89nkMb3V8IH76QOpwXG2rvkHTekxh/XLmbfA8izdnovBfRHWfRCDVcPc48fIZ8z6I7LeeRYSVgPoF6TqWfcH2UGk+2/hPT4gox59HkXurdkAG/eK4tD7dAlK34Up1GqoLW12ed0sofZfgM5/2VzmPi/o+XNwZs01zkR9jlMvmWPVc2tmkOtoOOx3W5FZ+oAAUAAAAAAACArqzbgQMHEl4ImM13fHYpm9QPM/F7Hv3e2wnR0oW2adMfd9PGrbvpxon/S/UBAAAAAAAAAIim1atX07hx48L/2jsAAAAAAAAAAABAlCRUfqLVZwb4EeaODv9fa4fowTYFAAAAAAAAAIgsT+UnKj4BAAAAAAAAAACgWMQqP1HxCQAAAAAAAAAAAMWk28+WrZU/eISKT4Cuzf3BIwAAAAAAAACAqOt95JvyB4+6HTx4sOOoo45SvQEAAAAAAAAAAACi58MPP1Sf4r/23u2zzz6TLT8BoHMceeSR6hMAdHWff/65+gQAAAAAAADZwpWgscrPw4cPo/IToBOhpTVA8UqlMpO/CPnss89UFwAAAAAAAGTLRx99FKv89PzaOwAAAAAAAAAAAECUHX300eoTxVt+rl+/Xva4/PLL5V+w6+hIvaFst27d1CcAtPwEKGZo+Qm58NCWu+jgwU9EHJTdn4i//B+pfrK3O4yHfCA/ynHYk3dvln8BAAAAALqKjz/+mFatWuU89n7o0CFZm7dhwwY5cNSoUXT48GH5Gbz+9V//Vf4tLS2lHj16xN7d+MUXX8jgm17385///Gf6n//5H5nm29/+Np1yyikybbHhwrR27Vq5fkcccYTs7t69O5WVlakUsGXLFhoyZIjq8n77AADFJdXKT5xvwWSeM9h9jT+n83pfID8foP3y7ycHnMpOdnC/+HwsV4LGK0gZV5K+9MJWWn1Xk+rTdXzRuovev3Uafdq+l44aOor+5vYH+NtoNRQAAAAAit0HH3xAv/vd7+TnWOUncytl0r0ZW9b0V5o67G9UV/Hhyk+u4Bs4cCCVlJTISs733ntPDXVaeHKrPr6h5crP9vZ2OvHEE+m0006jSy65RKUqHk8//bTMBybKkXyfArdicm/++S9Xpnd1fCN72WWXxfYrVH4CFK9UWnLy+SLs+ZafOijmpwj+vuqf5d8jjugmz7NHiPPoUSKOPEIEn1dFPz638udu3cRwkW7hrVPkOMXGPGcwt/LzinMnqD6JZEtQ50Ps8+2r5tArL+zsUpWfR/z7A3TkF+/yN9Piglbsj2+/QfSXP8thbz3733Tac/upmyhPAAAAAFDc9u/fT3V1dfKz5+qPL7TD3Ijxk98L6t6lE763jrrP2UXdf/ERdb9rP1Vt/kz2S66epnXvLlsITqtXvYSW+4fJfsPub1F9CgffePINmcvt5srN448/XsYxxxwTaw3KjjvuOPnX+qj82+vp14tuoptu0mLRIvr19rdVgrC206/l+L8WnzrPc889R7169ZLlhX9By21p4t6cuy1hH3vsMdntz11+Eb/uzDUAACg8/BQGH1/5VTQbN26U31T+9Kc/lfGrX/2KNm3aZD+nJIifZ93Qz7eFZuDAfnTzrMk0Z/r/ppnX/z2NHTmUpv7wKvqH71XQNWNH0LgrhtAVZZdQ2dBv0ojvfF2NZcPrPYwSLiNa7qdhtv6ZyMU0feitOW1sFZ/+olU2UvHhZefQkUd8THTil4h2/YFo53NEba+IK9+/EP15N33l9OOoe/lp9MWbb6gxLFpE/gzz5s8wkUHBm9nN02niEwAAAAAUAr1hyhF8E8XBN1wcbrctLnxoP3277mg65qEv6J92n0iHvz2E6ONP6W/bdtCPBxymnoffpcN9+tFZP1xrHV8P18N3TqM6t5/q73xMHCffwZWdXLnpdnPl3qeffhqrNObgfjyMuZWlbvpYvNVIi+56ml5680waPXkeLVq0iBbNm0yj6U166ZG76NfbjPRJwmUblovgFp8nn3yyrPT0qyznyk9u1XTsscfSiy++aJ2OjG1/pJfUOPTSH2mbLY0ntsUqe5OnNSOTcdMPl9mdqIXu/XY3WYEs49v3Jtxstdz7bep2vfPNBVEdXd/t23Rv2jfe6YzP42jLKOLbcgKZLosfv/n5ydVyAOSGfqy48847ZQXnG2+8Icv6+++/L1vU9+3bl/r16yfPL6+++ipdeeWVsr8+ri2ILqZFOz+V56lPdy6i7VfFz7eFFjt3ttADyx6nh361mpb/2+9p43Mv0WNPbaKn1v4Xrdv0Im169mV69sWd9OLLLfTHHa0JeaeHGOL8p/fvO4M2fbqJZvQ1+mcSuZimCJfZz33cfUbddTRjlRM/fGRirLJz6vwf0tRf/JCm/2KqDEk9Bq9Py5meVjZEPDDKOzw3UUfTug+l+1pswzIP+m0NnVb1f4g+eZ8+XvNb2v2VbxPFGkt3o0/HT6eOv75L9PkXdPjK3tZpdHS00H1TrqKH/4vouid3irzZSU9eR/RfD19FU+5rsaSPh8tZT6citFD3NwQCgUAgEIiuEHz/5Ep47oe/4fbz3pfOoB4tf6IjPj1Ip774DP3D375HU0eeQVdd1ouOP/oI+t6lXxYTOIbe+Zuz6Vv/uEWNlcRzD9P8+3erjsLGN6PMzUSuRebKP/7L4b7vk8PljhP3Nq3/1zp6U3w6f/JNdHnpGU7vM0rp8psWyYrQH5Y6vQrRgQMH5PtO+WbJXVe3YLmf+e83vvEN+trXvkannnoqtbY6N6o22/8Uq/oUXqI/5bTxZyn9kCuaF/1QfCowLffSt7udQzt/qu2sjxKtces5mUizkB6ljodGqx75cikteS2+nM/M7Kf6J5NuxWS68wOIlj/84Q/Uu3dvOuuss+iEE06QTw/w61Nef/112r59OzU0NNC7775L3/ve9+S7lh9++GF655131NhJ9D1HHPe202sFerr95vml9MgvfkLL7plL/7LwJhr+nQtp6R0z6N6fV9I9//fHdNctU+jOn0yi/3fTD+nnN/49feXLp6oxuwZ+d6drb+ubdMV5V8jza+9evWlqzURZ8XnaN04j6kX0Cu2lf3t9ZYgWoMXl6E/eIDrmRKLWHfTm/1lIx1wzmfavbJKPv3/20Wd01I/mEm3tEN0d1F1c/W4usZWh1+jV5/jvdXRlRV/xty9VPOBUEDf9I3eHUUEPyErlB8QnAAAAAMgXT8tP9ZdGjBiR9P2MrX/9lPaWfJ36HXuIDvT/Gh3brYOO6vhc/l216zAt3PA+0V/FjdihQ7Tt4LH093dsVWP6uZguvpjouTlTyFv/+TRNP+YYOuaY6bHHh3bfP0w+Vj5MJqyn6cN4eDyGTa8nOWS66pbpdtP9Kp0YLDrN8YaJ/uHvBOV7yERwxadbwcmPvfMNKgdPk4e7lYKJFZ/sbfoL13zS+fR13xq47fSbOXNoTrK4Z72YmuslWhEbdg/9Zr0asn093aOPwyHHs8zDMz07fuSS1+2TTz6JracbXDHFlcHnn3++8242Ee4vm//1r3+Vf722k6z7PHM0zZt8vuzzkqz9dJftN+KT4+3196jlXKFaivL6quFvi/T3aOvB6y9fH+CXj854239jGfYbMSTLeZZcC907aRaVPt1BnnrNfjNppqeecwzNRcUfQNHiik1+p/S///u/09atW2XLT67o/NOf/iRf1t2zZ095juFz9cSJE+nUU06mW279Ge3cuVMefwPV/44evq6anPobcS4U57/4eVfvjp83Y+dOyd7fPefKiCV2pjd9Op+34+fxIJ998Tn92++2xOKLji/o336/hf799/8p/v4nbX1lL23d2SqG/Sf9uwhOnxp9HdXn+vtpmLY+7nUGh3MNYU+bMEx1ZisvbLgi0/2BozVVa+iejYto4JnnyVadx331VDrA7UIP7KdXWvfSS6+/RG8uFhcaIrl8XD7JI/MOZ/vG1q1+Oh0z7H55XRWcB8LueH+OeJnR152HjaWH6TmaMzCeP9nKs8/37hL/iH1gw38QffwRnTR5qPMaolc/oc9fa6Fuq16V743tNuJkIlF2PheXcF/t7vwSvtc5dK64LiWxpPPF8uzera0n0/IgFrF8cvHy8zBedvdzUHoAAAAAyAXrY+8c7uNPej89jvyXNfTSO5/Tmd0OEX36CT38wqf00H99TIs37qe2Pe8QffCerPgUE5GxcucHNP+3bZZp8UNpbBBVL1tEF/PF8D31qp/D+cwJ1Tiym70mLtDFBfRzF9OiJ3eIa/od9ORUbkA6lqbc30KjbuTpie7Hn6aWlqfpcfkN/lS6clQL3T+FxyO6eJEYb8ci0fc5enjsFLo/5CNYLq7449aMbW1ttHfvXvmZg1vo8A8dcbiPg+utRWW89Rb9hXuc+VX6suz3Fq33VNzNod9si8/r/ElzaeHChQkx6fwzid6so39d/5ZK6aSdO3cSnc+Pz9f9K61/S0x/0GU0O8R4cvjsy9Qy+Qf/qjtXdPL6uY+9u61e+e8FF1wQqyTmm4a333aqBl966aXE6W37k6zIPPMbpfTlQV8Ty80J18rldsXSqu4zR4920ol/Jy38AQ3i/PvXFfSSuM87c7RYj7k8XKz/Cmf9Xc46ct44eJqDfuDmS7z/+V8blPU8c5ndMS1r6D+e/TGNC2jQWXd9N+p2zjl0jihP8cfeTd7H5p1kZmvLgNaXsvWpOX6aPNO6XsyV53sF/ZKepVnniH7uxBPShSfzxB3XurC2/ODeWVxPAIO+7/OPm5mhDzfT/+Y3v6HXXntNtv78+OOP6bzzzqPu3Y+mSVNmU+k3y+iv77wjzz979uyhzc++RAMvuJz+8bal9MSmP9Ef//hHz7TE/+K4qSqauMJlbAc9uXSUNkzOPLG7/h6aM+hJWWnGsVQ+Di3On8MG0uNX8zlX799Bo5Y63QcPPklTH56vzqfOvLefu0z0X0qj5DyC47PDn9MPrhwSCz6n/OC7Q+jvv/sd8fc7dGDlxXRg1f8Sw75Dfy+C09umI/431s3W31m+OfOJlvGyi4uIh8ceQ1OIl9fpfm7OPVRvSyuuHYi/sI2tZ3xe2coLl6ffwXhFnZgDranaQItWPUDnnXae7Hdqr1PpL1u8FZ86fVo8OU/ZOGaaWNc+NGPTkzRIrnc9TePysmkG9dHTW/NApB04hwY9qdZdDNs+dphl3VW+8OP2O8RnVRazlWfv3jqd6DBff4r46CM64/KL6YiTT6MjDn9KhxvepiPEsZ6+10/+AFLHZ5/Toc+JPhZJE6fF+SCuKxeJC8vtY+WXEZxHw6bdTy08fNQM2iSX14knp8pv8MX152timWVOu/8bn8WVqLxmFePF8hWBQCAQCAQCkcuwtvzkFn0cQT56YQzRn9+gPxx/Np39/l+IDjmVnDK40tMM0f+2/28nrXvxXTUFi74zqJovHpeNFRfdsqYyidfoFZlMXIiPHUTHHjuIxi6TA+i5V1rE9EbT1bL2U1yMD5ojUglTr6JR1KLGm0rVM/rK+c5eJBPS43XhvoN3K/X+53/+h/7yl7/Qm2++Kf9yBR/34+CWO/xoOL+PjStWEpxxBn2V/74pxnN60GWz3Uo22UNzPn3NfSz+7e204d8W0+K5XME5lx7l2j4PJ+0ZZ5RS2egzRfeb9Edu/RhyvLB4/fmm/G//9m/lTcE555wTqwzlR915nTkN38BzfnCB4+HcgsnrbdqwzmnD+WbdQrFsj6oWnWq5Q4u3pB15mViPMy7zrr8UtI5iORY78+bK0x9wa9ws51kol4q8VB9tRj/k7sBP049/ebul8pIr+s6h//ieuAFTO3pqT8fX0fXnOK1P5fivLaHtV/g9oq4qMH0rD3la/0Hfcx9Vf5ro9nvPoYd42d1H2OXC2dLZZmifX9I8EeVqVunTKo2bH6msJ0BmDvF5UGN2m7761a/SddddJx9p52NmS0sLbf6vXXTBhefT1f/wQxp3ywp5XOX+7x0+go487Uw6SMdQv7JJ8gumRKqiiStcdpxH848dTkuTne76nUcXi/PxcD3h7jp6/Dl17jStnS7f7XzssWNJnYqVi+nq0WEfE+YfXPyMHl21kX61eqP4u4m++PwL2f3C9t204Y6v0IjqZpnuRdHNkTmRN8tmkFzCUVfJSrnY8sruHdorArS08prlOeLLjQRZygsbuQ33i9BqNc/r1Zse2LiMzj91INGBg3Ts4DPp/AO96af//lP66aqf0ifiv/0i/X4xbiKtbBx8QFwjsVH0wJNEY8Xy05NuP5dPHux+TeTUVLrKTZyQP0nWPUt5dnDPXuda9OOPRHxIHe++Q0e877wSwj130FtvyQrSTz8Xf74QyX0bD/elUTMeENfEIm92PEl8qfjcsjk0lfeJ3Wtp6fThNFwu87Hi+jPMdSvjPMqsDAAAAABAaqyVny7+hjvI6A9a6MN9/0NHX3oJ3614Kzu5myd+cTnRRaOJvnUlrZ56kEZ+60tqbLtRD1SLy8JUTaUn5UW7Fg/w1XdfGi1rP13ign128OP8YbmVnxzuxXTsoloN1/+6/b3OoK9y3Ry9RC+7z3Qn9TZt+PWjVPfSm/RV1eJwrqzgSybd8fxxxSdXdPKNubt+3Drp61//uuzmdXcrPrnSkyuYGN/Ue7y9nf7IdYpnjqa53IKSY+5oktWWf/yj0zq2E7y94ddUx8tx/iSazZWnOcizUJ7dSa+pj1Z116uyxq0nLVTr0Z+m+1h8yy7aTlrr034z6ac/fpZ2WhfK+w7OhEpWOS2twvKKX4rVs0wobDq/+SXLk3MG0qW/vML7A0kprSdA5twKz2QVn67TTz+dfv3rX8uyzq3njz71VHr/yFNo3wdEH4lJvP3Wm9Tc3Ex79v2V/vSXw/TKW5/Q+zs3y4qYQPKLQZ9KO11fp2XbMnGO5WlOX6v62+xeSsO5nkyeg3fISqJ0HRLnlUnjR9CPxo0Qf4fTF2L9ufu9lZfEKj6/+LyD9q+8VMQlNPSShG8LO8luem2H+qjLYl7YiMkSHasqMcWfqf/+Qzrz1NNkBejtv1tKA88/n/gNlmcOOY+2Nmyg807t7aTNCZ88SFUW86z7ZeI678C7svLzw607qX1xE31xhNHSuukD+vzMs+mguFTlVp+Hw7w5oe8omlHtXKE+90odLZ06luYse44GqVacO7K9oQEAAAAgazw/eOReFA4bNiz2zk/9YtGMlXddSrR1K7W++SGd8ma7U+H51l/ptAOv0z0X/pEeLhd3Vl8Qzf/x1XTlyK/Raad/1Todl9M9km5cqF1AxobvoF3yEagWeu0V1aujn3of0zKaf3+9bAFTP935Bn74/c4vcfapmEixqV08kSr68DT6auOJdC3302LZ0vRimljRR46XLJyKFqeCj29Qv/KVr9Df/M3fyF8+53d+8vuluMKPW31yJSHjtN7pfJlGlH9DDnvp0cW0fttbot9btG39YnpUNdyR6ZxPapy36E3Z+PBM+sqXv0wdb22jbbLmUIil/Qu9xdMSwxpkbd6Z9PVBHSHGc+cRLvgGnv9y5eb+/fvl+nG4+cIVn2+99ZbMBw63sF144YWe6by17Y8kl/Lrg+KPjX95EH1d1n6+KYfJdeJH98X6i/t9B6dzPqhpfZm+IusmX6J163n912vrL9aZB+nrqHdv+w0t5LRnVtCcvx+k0oTJazV+yHCZ3TH9xtD3Lv0lrfZ7/Jof076C6Gk5/mu0ROyChe/HanlV+DZDDZvOECZP+s2kZ8TwR2mSLJ94vB3yJajiM1b2tTjttNPopptuovXr19PeN9+lHf9D9OpfO+jPr79DF1zwLbrlllvoz3/aRNtf2E5vv/wc/X/33SIflTen45m+fA3MxXSu/GVyPh8+R6+4XyrUPyVb3cXSiugzfSNtF+flHbvE+bJPBU28WJ07tTQd4sT83MXnUl/+rF4z4w7zzDtEHDr0GS17rIEeVnFu3x5U909fpqHX/4w+/+AZGcNnPkIjZi6n//X3N9Dhpy+zTofDb956f/1zsm75hMjTat3lek4V1zdGuizmhcvTT1YQOo++T131Q3rpsVfo6X95Vv49rfU0Wvofy+jMXr1jFaC/eczbjlKflpyepR8/wj59LNHqT1YTjZ2uHvt3wjcP+vSjQaL0PFWv0oprq/nLLPmjwtOdxTz78v+7j+jD95yWn1+/gL44xD/K2EHHrV4qP7vXIkeubqNPxO74yl/lj74nTqtetUQdfj/Vq+vP++c7eTn1yn7qCSLej8R1Y0s9Pe28W4kn5PwVeDou8zMCgUAgEAgEovPC952f/C4xDr2fLZp++nWit/5CA99ZSLNO/S0tvLyZ7vzuB3QTzabr3qsSV5RODSunHVY/nI77v8cZ0xAXgXL2/MHp12f6v9Ddbo1lRwXNWj1FXF4+R3NL+ceESmmc+2iRuGmbvmG1SCuGzh1HpaU8TFyKTllN/zJdVWKKG7UJaloXT6hQ71bqI8ebIvo/N7eUjiudKy7XL6Ypq/+FpsvK0eThVn6yk046ST7uzhWAXAHaq1cvuSxDhgyRP4LEv9R7/PHHW6fTMejv6a45o+gbX32T6n+1iObNW0S/qn/TeRyeiTQuZ5xB9Pf/+xtiuEi/aB7NW/QrEsljwx1qWmLYH0XKb/zvH9KIL4cZz51HuBgzZoz8y4WI33HK68/d7NVXX5WvAeBt725//suVoN5K4LdVheJX6WulX9b6f5lKvxZvIRpbbs4fVQEpKztlkj/Sr+b9G23jyuRZ/1vkpciBel7/em39E9fRxcuwft0fnY4362nRPJ6PiMVvUVmW88xldsf1o5k//TH98gqjgq7lXrqXu1/bSc+6j8XLFp78waAqUBMfGz+HBl6qtWysW21vJdmvP5WKIbEKWDHv238Z/B5SX2pa9kfYNWHT2YTJE6XfzGfotSWX0vZdYj7ZXE+ALNCPFXrwOeRXv/oV0fv7qPmF52nfH/+T9q27k775rW9R9+7d6f9M+Qc67d219EnbBpo9e7b8oTnvNMS0Y+dQEaVP0IRtG9T5TpwPb55Cy8apYU910BR3WdZOd/qJKJ07kG6W51Xn/DmQz51q2PS1Iu3IWXQ3zaVS7nfdKzRQnF/j8/ZfN1vwY+9Trymn61Rwv88Oi6l8tI/o07c9cfwpZ9Olf/cj2rRscMJ0xP/e9RYxQlba6stkLl9QN3++mAa+cp0zPXHtMHD1/TTSTJfFvHDp/T7hB95lBehBemD8Mnr2356NxYblG2jOkBn09L9soJca9tJeEQcPOi2BDx7cL/4xr+t4mcw8Wkv3jxhHO+6eJdZtJM26eweNG6HecynT++XBSLp/2920wy1LspxZ8kelvXKKmu/0tVnNM07/53WN/HgK7V3wFH3R7Qg682dX0TG1P6fjhp5Kn314gPhN7B+N60vvfsrXqEQnT7ohcToj76dtd4vrz+fm0jh1/Tn3OXGtePc2un+kWFf92rR0nBgmJsrUMsglV8uf+NmYFwKBQCAQCAQip6FXfnb7+OOP5XXZ5s2bZY+hQ4fKv8kcP+w3dF3pZjrlS2fI9z9+6dSTaNJfrpMtPrnCi2fCj0dz/KG9nX538Z/UmNHEGbdmzRrVRXTmmWfKFo7MfSE+txbgytEXXnhB9uebV/4BKe5/ySWXyH7F4Pe//72szHR9+ctflhWc7js+OZjb2um73/2uzIOu6r/+67/osssuk18sML5BtOLWjOfMolg93qVL6LVnZlI/9T7PWTzg0h/Tj2k7DXz0GZrZj39E6HYa+Bp/5hG4O/4I+I/dX4/nx8OvUH1/LMb/pRhfjmOM75k/P2ruTldnztMVNC3hx0/LVp38I0VyUVS3X7o4v/mFyJPXtPWWLUwfIjnlUOsJkJ6wj7czrsR0jwt+3njjDfrpT38qj7H85dqkSZPkDye5+HjrfikXZTf8U636FDfq8kvoiIYx9N0fXklHnNafnlx6D/Gaut1PPXAPjf5/f3YS58w6mnH8Ajp32wayvfI0F8xzBvuH//dd+e7X6aN/qvrw0+8H+R+J3++ZQAyb8+8/pL1b9tIzv9mjeqaj8/MgHR1iHzn+8lOp45C4yBWXIZ+LwvLZF87j7Z8eFtkh/n4ods/d+0V+iSRj/uo8oQMAAAAAxekPf/iDfJUY6/bRRx/JmqotW7bIHvzou/vIdjIXll1LrTSMPj4obsSOEJO56nr5qDvfjH397LPpxbY2p+WfiN9d8rIaK7rq6uLN8k7l97CpH/HhFjdc+elW9u7YsUNWDnLlJ9+8cMXfxRerpqhFYuXKlZ73w+qVnm5rT+7m94Fy5XBX9txzz8kbWXe/4hbBAFCcUq38DHO+5fMIn1v4qQL9i6eu4vfVf0vjJl1Fqx99ir47/88J3bm1jv7xhLvo3JfX0/ROqvgzzxnsf99+JZ03+DyaM/522R2m4pPN+PeJtLfhTXrx8Ux+JKrz8yBdn/35daKJ58pH2r/gClARn30uQvzd+bbT/TFXfL7zkRoDAAAAAIrV888/T21tbfJzrPKTuZUyYSs/N/zB+RX3y77p/UGjE24/geZNvZy2vv46PXmR7Rdoo2nfvn20fbvzK0Vf+tKXZKtO9rWvfU3enHI336C2trbKG1TOT+7HN6xcQVps+AaNH3N3cYWniz9feeWVSX9AqytA5SdA15GLyk8genLe2fLv2LvfkH+52/2cW4VR+XnNT8vo/AsvcCo9mXr/Jz8Gz/hX3V3yUXf+q/p1pcpP1/peZ9DZR31EBz8T+6S4NOEWoBxfmnQDlc6fr1IBAAAAQDF79tln5ZN0rNuHH34Yq/zMlhNvO5Euv+Ic+QjSUxF/3N307rvvymaz+rsDTPzDR+5jiHxzy+8C5X7F6q9//Su9/PLL8kbtjDPOoG9+85tdsnWSn//+7/+WN7L8Q1iMWwQDQHFKtfLTPS4AuMxzBvve/y1Xn+IVnpL2eb+nf7w1KPd+4bE03q0MAAAAABBh/IS7+7rKbh988EHWKz8BwItb/3744YexzwBQnFKt/HSPCwA6/ZwBAAAAAACp27Rpk2ysx9A8D6AT4CYWAADCwjkDAAAAACAz/Hs0rm7vv/8+Wn4CdKKTTjpJfQKAYuO+CzoMfifyBx98oLoAAAAAAAAgW9atWxdrVNDtwIEDHe77KQEg904++WT1CQC6uvfff199AgAAAAAAgGzgek7+Ie7Vq1c73Vz5iR+nAQAAAAAAAAAAgKjjik8Wq/xcvuEjPPYOAAAAAAAAAAAAkTdl5qN0YMsPvJWffc86WnYAAAAAAAAAAAAARNWwax5OrPzsc+ZRsgMAAAAAAAAAAAAgqoZ/b1li5Wevr6LyEwAAAAAAAAAAAKLtsr+zVH6WnIHKTwAAAAAAAAAAAIi2sr/3Vn4eOXbSrbedfHzyX3v/7PBB+uzQp3TkUd1VnwKx7xG6Ze4fqfS759MJ+mc1OCWZjm/K9vQAAAAAAAAAAADA178+8RLdPGUwvfrqq7Jb1np2dHQExqGDH1Pr9v+kV59fQwc/es+axjfeWE43Dz6GymPxXXr6DUs6M3i865fTW7ZhRnwhQnxI+JxOhB4/Yb1E3LOJOp6/mcq15Y5NL4X1QSAQCAQCgUAgEAgEAoFAIBCph0lWfn4h+vvFpwc/prZXnqW925vorbZttGvrOvr4wwPWtNbgGVxaQ4/+6SDVc9RPoM0Vx9IvX7Ck1YPHEz63DdNDT6d/TidSGZ8T6uvFceMw+uJb86m+5lo63U0jZGXZEAgEAoFAIBAIBAKBQCAQCERgmFTLT3sc+vQTan/lv6h1exMdd+JpdOKpX6W3Wl+mPS9voI8/2G8dxxaeeXz1Wrq9rob2LnuE/uL22/cI3fr1Y6mCo4r7t1HdP1fRH56tokncb3GTTPenxSqN1o9Dn77+OXG62jBbmgoxzxTG98zLDR5HS+uksayPTFdN/1LF06+mP7njuvNz+yEQCAQCgUAgEAgEAoFAIBCIUGEKbPn50ft/pbYdTXTsiadRyaDh1Of8UXTiaWfSX/b8kd79yx7rOAnxhZixmAfPPNbvq32o17O76E3Z3UZ1/28XXf3SQVojYn6/KvrdCz1p5K01dMGlNfQI9581TI5XOstJs+altTTx0UVU94Yxfc+8bNPl/npwmirq9S9qumvEPMOOz/N6toomf+NYGq3i1pVtPstjWR85/nY6+1ae/nwq7Wiih0evpG+vceb3yD9tp58sborPD4FAIBAIBAKBQCAQCAQCgUAEhimw8vPoY0+iswdcSiWDRtAJp51F1O1I6vm1Mtnv+FO+Yh0nIeRsEvuL/53P+zbQfz77C6o+/1gaI6L6V0R7X2+zj/dCtUwz5vxR9IQYJqchU6nh+me/6brTctNQDV3xTdWdyvic8NIaWrb1IP1Oxc/H9fRfHv1zbPwJ9PUzVfe+PbRX6z79f02gC1r2yBaksXEQCAQCgUAgEAgEAoFAIBAIhG+YAh97737cKdT7GxV04mlnUeu29bT3T+voiCOPdvp96W+t49iCayk9/fbtodZL+tNXVDddUkMP/+EgPaXitrE9E8fb9wj97MdEd8g0zTTjkvgwPZ3ns8909TCXLZXxzXFt/f0+p9ONQCAQCAQCgUAgEAgEAoFAIPzDpCo/7b+OxPHx+/9DrS830LtvvEof/PXP1CY+H3h7rzWtNeRsBLf7zUfotu9WUc/Jk+nL3P3VPtTzv6pozYvx4ev4sxotNh5/lhWmnGYDPftfcqA3nfooP/tNlz+7IdOspD++qbrfaKatYceXMxLcblt/9THhs63bWJa3/3slbe3Xx8kjBAKBQCAQCAQCgUAgEAgEApE0TN2Wb/io47QTZR1ogk8/2k97XlpDB/7yGp10egkdc9zJ9M7r2+mkv/lbKhk8kk4+vadKGeDNFfTPY6voJdVJVE7Tn3yKys5UncxIM67mE5r0zXZqnDmAHuBKzn9YS6tuGEo77juOfvpr0X3JLBpHO+jsm8V0SIy7gKjq3sn0ZZ6O+5knZJ2u6nD9oZrGVy1xPl9STufThHDjm/Ny6f09aYz1uWZP4vie+c2i25+fT4PkZwAAAAAAAAAAAEhm/NRH6MCWH9Dq1atlt6z8PPUEe+Xnh+/+mbZv/Bf5iHvvb4yhI47qTq/vWE/vvrGT+lxwFZ3R26xJBAAAAAAAAAAAAMiPCddZKj9PPt5e+fnZoYP04f7XqfsxJ9Hxp35V9vv0o3fpkw//Ssef/BXqftzJsh8AAAAAAAAAAABAvl39fyyVnyceZ6/8BAAAAAAAAAAAAIiK7/3YUvl5wrHdZAcAAAAAAAAAAABAVP3d9SsSKz+PPwaVnwAAAAAAAAAAABBt36+0VH4eezQqPwEAAAAAAAAAACDafjDNUvl5zFGo/AQAAAAAAAAAAIBo++F0o/KTBj/YIT8BAAAAAAAAAAAARFxCy88JFxyWHQAAAAAAAAAAAABRdeqQf/NUfh4h/wUAAAAAAAAAAAAoMqj8BAAAAAAAAAAAgKKEyk8AAAAAAAAAAAAoSqj8BAAAAAAAAAAAgKKEyk8AAAAAAAAAAAAoSqj8BAAAAAAAAAAAgKLUbfmGjzqGlrypOgEAAAAAAAAAAACiqd/4dXRgyw9o9erVsjtW+Xn66afLHgAAAAAAAAAAAABR88477yRUfuKxdwAAAAAAAAAAAChKaPkJAAAABath/Rb1CQAA/JRfPkR9AgAA6NpsLT9R+QkAAAAFiys/r57wXdUFAACmx1f+HpWfAAAAStFUfnZ0dNDnn3+uusB06NAhOuKII+jYY49VfSDf0HIJINpwU5k/qPwEgGL13nvv0RtvvJHWfc2RRx5JZ599Np1yyimo/AQAANAUTeUnXyCcdNJJdNRRR6k+oPvoo4/ogw8+oOOPP171gXzDzTtAdOGmMr9w/ASAYrVz507q1atXWg0WDh48SK2trTRw4ECcpwAAADRFU/n52Wef0Ze+9CXq1u111Qd0Bw+eQfv370flZwHBzTtA50OLmuKA4ycAFKtt27bRoEGDVFfqduzYQYMHD8Z5CgAAQINfewcAgC6DKz65RQ3fWKYaPB6PDwAAAInefvtt2XKVK3D9goe/+eabagwAAID8QeVntrS0UkuL+qzz6+8nW9MBAOjiuMVnuu8+5vHwbmkfe2po5Mga2qM6AQCga9m3b588R37961+niy66yDdKS0tl+rfeekv+BQAAyBdUfmZB3fUTqNs5s2nSOT3p29dvVH39+0sty+n6btVUpzpZtqZTkKJ6s4ybfADIFz7+nHoqnRqLWdSgBgEAAOTLgQMH5Kthkv3+wjHHHEMlJSX017/+VfUBAADID1R+ZqplOd2+/bv0WsdKeqajib63/X66l1to+vWnVrr32z2p2zk/p19ypytb08mFhBvwHN+EW+Y3C3f86WtbRqNHL6M21dlpMp1vvpZ701zqNneT6ihSUd02XdFF82mruMnkG80DjxFdgy9jAAAgz7jVJ1dshsEVpHiSAgAA8i17lZ96hdXIkVTTVSqrXnuNni3tTf1kRy/qX/oH2vlaQH/xeeYzbdTRsYJ+LIcp2ZpOrug34DKWULkalBP6/LbOp53XFHEFKFckdetG3WIxmpYVZK3SJprrU+G1aa5YbmNYW+PjRFeXUU/u4ApFtX6eekW//kJsfCN/RuuZYxvfN71Yfmv/kGwVfplUAmYyrisobyT7Niu6bdNVlI+hyc83027VIr1mFp9z1RdRni+N9H76F1UNNMuaXpyz3RrVMP0vqKbnVW/f+ZrLBwAAgQ4fPix/vd0PD+M0AAAAkLosVX6KG6oLVtH4raqyqnY8rbom5A2PukmKakuWll3NdOnA3qqL6JyB36Ttu1p9+/vJ1nQKSqibZe3m2k+fKlrHFaALVTnxGX9PzUjVTwSXKVm2ZtGskW7aeAWqJ61nGbhyQEu/1um7Vt7Eq35uwfYsR4Y3+BUPU2tHB3VwtF5Nj/dKrHDKp7Zlo6lbtxG0SHXruOLzLppDFarbtfdVrh/j6rU2WnbXdnq4ldftYdp+l6qM44qwEUQb5TqL/iPmkr7KsfHFh9KNKm86NlLpdZWqcthnun7pN63hmWn9l3rmF0m+eRO8zbBtomlPzUJacdEA6ssdz1dT8xj3iyg+B1fTwMecc/DW+TvpGj5QiWPn3MkraI17cGpYQysmj1Hpm2lu7Asmcc6u5ONrUP/49PkLqYucCdrnyzzLBwAAyfA58N5776WXXnpJ9Ynjfjzsiy++UH0AAAAgFdmp/NzTQjsvGk+j+qhurqwKe8PDaddVkTsqFChxI3tBrKIvTGVf0M2y7eY6iT79aCC3ePIbf08NVVYPpMdU/8cGclrh+Z00oFalfWwyrVCV8n2q1jn9ZP+BVH0f991DNSOvITGR2LAlo3ga7k08pxXTkJWwATf9meo5ler0CiOmt5iLteRro2Wj463lPI9q6+l7XUf1qrdknZZTien3uHfPqXWyEsus4OQKtrvObaW6GeeqPq5NtGZRKfWV9WuN9DhdTbKurWeZ+PQ4NfJM975K9XPG0HBOzv0rttPu2Apr4w9fSAtlItabznUXwm+6fun1/m27aXvFuWJodsk8dPM23tzRsp1Ev0qxXeqvo15aWvv4AdvGb10Fv23WVbdNZFvUaMfeC1aNp63u+fKi+XSDe5KV5+B4d59R4+miFWvksa58jDhmqdrPhjU7aT4n4vS0gq5xj+fiWPa8bFEa0F+fnytgvp7lAwCApLp370633347/epXv/JUgPJn7sfDwj5qDgAAAF7ZqfzsM4rGUzXdV9NAe8xarD018ZZ3I2c5LezcFnmzVOs7t+WnLS0UBnEjm9Jj70E3y7abazU4Kb/xuXJU9ncqN8uXqOXTK+X5kVExdotbBt1pXLOCaGeLKLtraRVZlllfj74DnErcoJv+bOjZl0rrX6W9soMryl6ln8hWcR20sfQ6Wsr1YJuW0nWlG1VruVZ6WOSiUz/lVKzFWth5KsB8ppUGrvispFqqm8o1XIZNa2iRW3nmp/e5VLFojWrh15P6ltbTq84K+4+vV6qFkZBePV5dSVRbN9V57DsVbmWlG0bF8vCFKs87NtKcRXepVo227dSTptaK7eK2+FU1f9bxwwqbN8W6bZLgfI1kixr92JvOF4XlN9D8nXxsaqA1O7Xjod8x3a8/AADk3AknnOCpANUrPnkYAAAApCdLj733oarax2hA80K64AKuUHIfI95DNZWr4i3vagfEW/lxi7wxtVqLwIC0Baxf/wH07E63VoDotZ1/oNL+vXz7+8nWdCIhnZtrWdmoHve0jl9OS+TnMbRGVmoGtEzdXUMj9dc0xMpggeJKovpFNEJVuI1YRLSdm+HJCqoRqvVmT5q6UFUYyUqlh2mGrXbLb1qCrHiLN8tLoo0aH6+n+ut6xSsBuWJQtSTdtGYRzRmTZFo9p9JP5ujLUkHnquZ+9vE30dxej9PVtWErxmzph9NCrlysJars5n2UOxT99QQcZsvK2HsutcfN/baTjW18Ifm2CZ83RbttkijqFjWyZXw1yQbswp61q+h5+Xg760Ojxu+kNbPW0M7xo5zKUyN9TGD/VbRWnZDl9PlD4HwBACAdegUoKj4BAACyI3s/eNSnnKqWOI8Sb+XHiOWjyGtp1fPPU7WsEBUhW+mJGyhu5sct8sq1Nix+aQu99vOcc+jS7XtJ/gA7tdKu7d+kgecE9PeTrel0NtmC0lLRGPJmORz1iPncKurjNz63GpY17lwJupXmX7STWszmpPy+Oy53XIOqtQiNL5tqwRxm2XJ9028++mtUusnWlvx4fKyyqFvCDw75sk0rZT1pal18GrISkKcrW+y10e7t8cqyIPGWjq30cIV6lNo6/iaa2+0uOre1jsItbpL0CY9yZ4H+nky5Pqp/2O3kN35SqeRNF902SvG2qBHHPX4v8jXO+fMCfgXIkvjRiFum71xBNLfKPed608uQT2AE9Ofzujo/VzYPVF8YBc8XAADSw+ek+fPny0DFJwAAQOayV/mp6eP+Iq3smhx7D6MT66hKNt+zsaTV6kcLUr8p9NPS39M53SbQt7sNo/8o/UeayT/N7tffT7amUzDC3SzHb64Nz+vvGF1IA7YeIOee2mf8PiJTqi9Q/S6gVeNrnXKmT4df58mPjfKPgAyM948vG7dg9k7b/cGjRDm86edKsF7XUelPVKs4+Qi89ni6GL6MP2+a6/woknpHaKyuTKZX71hk/P5G9dF3WkLQOz9TYj7OrL/zMeFRZ0fbskq6rlQ9Sm2m4fywVZb5TdcnfduyufHHyGULWLdCL4vcCms5fdnHfzvZ2MYXfLeNX974MfO2K20bRa8ALfiKT793Ytv6y3dtu+dOozW9HGbrp51v3en59S9fEuu3bsmS+Pxt8+V+tuUGAIDQjj32WBmF6Mgjj6TPPvtMdQX79NNPZXoAAIB8ykrlp/zl7FnxCqw9soXdAOrLLekuWkFr3Jd3ynd9Wiq6WCppC8zoh1ZSx2uL6dHX2uiZh0aovv79HSPooY75NFp1sWxNJ+uCbmTlja/PY+uhbpZFmNM2h5uV4Nbxy9Vj706sc0fwPCIfX87yJVragGVbUiW69eXj4da0PnkQlv4uSX4cuLVD+2GY4bSwlX9x2x1+Hb3KvXuf6+kXqyzl9BtL6bpeathd27UKN59pJSF/Odx9tF2MF1RH2tb4OP8UuPY4c0+a+hO1PJ7lVNMV0+v1+NXUqlbYHJ+768V/sfURMVrWlNmn65e+Z1+K95N5vNCp0MsWflS8VG3Hylep1M10v+0kKwhVes5Qv/ED+OeNyltjm3XZbWNAixoAAID0/c3f/A21t7fLis0gXEH6xhtvyIYCAAAA+dRt+YaPOoaWvEmnn3666pWOPdQwq5KuWSEfHia6aDI9VruE5FPtexpoVuU1JAeJ/vNF/yqqoZH8oxZcicSVnLHPlrSxWqc4PpF+6UtfEjfKr6s+oDt48Azav38/HX/88apPF6WXLdUrXxrWb6GrJ3xXdRU3bqW4ZoxeeZuaTMfPGL93c82YFN5/Gh2R3zYp2rZtGw0aNEh1pW7Hjh00ePBgenzl76n88iGqL3S2rnT8BICuJcrnqX379sn7jaAfCzziiCPkPeZXvvIV1QcAACD33nnnHeo3fh0d2PIDWr16teyXpcrPzoXKz2Co/Cw8Xefmnd/nuIbGdKTbci/T8bOgaCs/i2DbpAiVn8UBlZ8AUKxwngIAAMg+W+VnTt75CQBdFf9idyaVY5mOnwXDFxZlq8+i2DYAAABFhN+FefDgQdWVGh4P79IEAAAIJ7ItP9977z3q3TvETxZ3QXv37pWtPo877jjVB/INLZcAOh9a1BQHHD8BoFjx/Qyfq5K9O9PmmGOOkeeoU045BecpAAAATdE89s7vlvn1r38tLxggEV8E/cM//IN8zw4UBty8A3S+nTt3Uq9evdL6tVxuUdPa2koDBw7ETWWe4fgJABAM5ykAAIC4oqn8BIga3LwDdD60qCkOfPwEAIBgOE8BAAA4UPkJkCeo/ASILlR+AgAAAAAARAMqPwHyBC2XAKINlZ8AAAAAAACFD5WfAAAAAAAAAAAAUJRslZ/4RRwAAAAAAAAAAAAoSmj5CQAAAAULrw0BAEgOr2cBAABw4LF3AAAAiBSu/MRNPQCAPxwnAQAA4vDYOwAAAAAAQAH44osv6PDhw3To0KGUg8fj8QEAACA5tPwE6AR4bBNyCa09oJihRRMAFCuuwDzxxBPpyCOPVH3C+/zzz+nDDz+ko48+GsdJAAAADR57B8gTXJRCrqBsFb89NbOosnoFPc8dF11Ek+fW0pLyPnJYV4AyDgDFiltwnnrqqaordQcOHKDu3bvjOAkAAKDBY+8AAAUCj7pBGHtqRtIFqwbQ3K0H5E3ugdq5RNdUUs0elQAAAAAAAAACofITACAP+HE1ftSNW3ykGjwejw/Fbg+tXUU0v7aKYg09+5TTkgPrqKrrNPwEAAAAAADICCo/AQDyoKOjI613fDEej8eHIrdnLa2i8TTKr6KzYRaNjFWKj6RZDaLfnhoaOXIWzZo1UvYfWdNANfIzD1fNRZOON4saRPeskSqN6M9J3DTO9LRx1TA9vWyZak7TNl8AAAAAAIAcQ+UnAABAFJUvoXX8KDzH1vG0c2ENyerN53fSgBvWiX7ziaoXEsnPPHytMzxovDG1ov8N1FJZTTR3q0yzdfxOusatqRRpmmUaMe5jA9W4e6imchUNqFXTrB1AqyrNaS6hcr/5AgAAAAAA5BAqPwEAAKJItrZUrTAvqHZ+EIldpLUW1T+7gsbj5+tli9P5dIN61r7PqPF00c4Wp6JSpHH7U98Bzl9O//zzVH2BatXJ03x+Fa3dLYa505TpfOYLAADyXd7vv/++6krEw/C+bwAAgPSg8hOKCz9mKR+p9EbWHq+Uj3Fms7XSB7Rr42r5C2RmbNz1gUpTYPa9SKs37hJLDgA51WcUjadVtNZ6wGmgWResogFzVSvMrfPpIjUkWLrjJTOZHnNbdcpYR1V91SApV/MFACgO/DqbP/3pT/T222+rPnHcj4fhlTcAAADpQeUnFJ+L5tNWz034AVpSrobpsl6RmY6TqP+IcTRunIjLB9Ippwyky/mziBH9T1JpCsxZ36JxI/qLJQeA3OpDo8YTVVfWkPu6TtrTQLNOHal+7X0gUV+nVeWetc0ptKRMMp6sdK2m+9RM96xdRc8P7CeWxgenv2gFrXF/gt732Jru8gIAFD9+n/fFF19Mzc3NngpQ/sz9eFi67woHAADo6lD5CVCoPthFGze+SC/KlqEv0j7Ra9+LWuvQF7mPmU7rb7YqjfX3mQ7jVp1uf7d1p9lPzk9r+cnd7nC1nJLvcoEJj7qBnz5V62jr+GZaGHukfCHRY7VU1aecbphPtEr1r1y1U42RTJjx+lBVrUi08AKZ5oJV42mr9RskF6d/jCfqLGNlM42vrTIqS9NdXgCAruPoo4/2VIDqFZ88DAAAANLTbfmGjzqGlrxJp59+uuoFEGHc4qiSqHadeePNg0bSBdXc1ugimjx/Lg1YdQ05nfNpK6fnXyK+ZoVqjSTSPLbOaTEqpjmrsppWiAEXXXSRGD7eSa/1p4sm02Prlojbe7uG9Vuo/PIhqssHVxa+SPQtt1Uld69/g86+fAQlNgLdRy+ubqaTeRjp6bj/Pjpr3LfoLK603HcWjfvWWSL9B7TrxTfpzG+ZLTa16chx3c9qsGe46uVZTu/wD3ZtpPXvD3Dm6Vl+bbnUZLq6Q4cOyUog9vnnn9Ozzz5LAwYMoDPOOEP2c7k3PpdeeqmnxQe3aO7evXu4sgUQYSjjAFCs9GsB3eHDh+m5556Tn4MqPvN2LcDX2553N2vXzTmyp2YWVVar63RxPT55bq2Yn+8zCVkl7yGa59KBXK4gAABkzTvvvEP9xq+jA1t+IBtiMbT8hOLzfDVdwK2PYjGLGsR/91UPdN5Jx78yXL2G+tXOF9dOquKTx7P+EjH/inH8V49r5w6UsxCXQZ7+nl9DzqZTzqYz9drKWCvM5+nPqpcUS3cSnXzKB/QhN8s86WQ65c/PqxacJ1F/veLTNp19++jPCfOz9NN98CF9oA0/6cyz6RTu53TalwsS4FE3AAAAcHFl5yWXXCKjYFt86q+Zil0354asfFw1QFx2q/nVziW6plK9AibX9tDaVUTzb0DFJwBAlKHyE4pPwjs/uUVmXxpw0Qq6ZuRImrW2H9VutbTS5Jac5i8Rm7963HeA8yMdQb+GnCvckpJbn8p3gl5OA09R/f2c1J9GcNpvEb3IFZ3uo+qpTgc6BR51AwAAANdRRx0lIxL69KOBzzfTbtWZXarysbaKYg09+5TTEv5hvU5p+NmHqtZ11rwAACBXUPkJXQRfuDjfFA9oXkgXXMCtQXUR+SXiU052Wm9+8Ca98Z7s42/fiyRfs8mVoPxjSk5fh206Z51Ff/veG/Sm3jrT1k930ol0kjb8gzffoPe4n9MJKdIrQFHxCQAAAFGwp2EN7bxoAPXlx+FHzqJZs7gxgbjWlg0L1JNYor9z7a3/cJ/A48intHzIBgfjaZRf5SO/tir2tNdIkg9ieZbjVBpZ00A18jMPVzNOOp7P8qs0zvS0cQEAoKCh8hO6CHWhReVUtaSW5l+0k1oSvp62/BKx7VeP/foH/RpyNpzUnwactJPWyx8Pep9OStry82T64Hl+tF3E+p100oD+TqWk73TOom9ddBLtXK/GkS1Fbf10YvjlZ9Mbavj6nSfRRfIdo5Auruws+EfdAAAAoGvTXjPFv8UX+6G753fSgDHcmOAGarG+Iqqcxkx+nlat1a6hJ4/xfW9+UtbXVgm8HDeskw0aqFosoPzMw9c6w4PGC1x+J02zTCPGfWxgTh/5BwCA7EDlJxSfhHd+8je+femG+QPVLw1fQKvG11JVeT9ZgXmB/LbZ75eInV893nmN8yvGlc2kWoSm+mvIIXALTffHjpjZLZz1LX5UXcSIb9G3RqgfIfKkO4n66/3lo+1O6HWS1uk4A2Lpx7nTNPvZltMdrv+gkd9yQVKRetQNAAAA0tKtWzf5o4fp4PF4/LzRXzO1bkn8sfCLxtMofj494BVR5fKimyshs/A+Tdk6U7XC1H+EiZdDXyb3sytovCTLz2nc/tR3gPMXAAAKGio/obj0qYp/i6vFOnFF1qcq/g0vd/M3z/JRePlOUB5VG75unbiQU99ga9Nct2SdGBbvv0SOL8LtBwAAAAAQAv+Y4YcffuhcS6YYPF5kfwxRPkG1itYme6SdxdKqbo90X1sVkdddAQBA1qDyEwAAAAAAoJMdccQR8hU33bt3Tzl4PB6/YAW+IqoPjRpPtKpyFdH4UUkaEDhpqytryH1dJ+3R3xtqeW1VKEnGy8crrgAAIGe6Ld/wUcfQkjfp9NNPV70AINsa1m+h8suHqC4AokOHDslHrdLFLRX45gdlC4odl3EAAAjWqdcC/KM/lUS15pNPZn9+tLyymlZwzSI/Jq+n57QXrKLxW/VfUudKzTU0Rj2VpdtTM4sqq1eoSsqLaPJjtbSkvI+n/0UXXST+jqettUSV7nLoy6R9pmTj8Wxsy69PT6Wx5gUAAOTNO++8Q/3Gr6MDW34gf5uEofIToBOgggpMhw8fphNPPDGtR9b4PV/8uBu3+kDZAgAAAAAAAHDYKj/x2DsAQB502fd8AQAAAAAAAHQiVH4CAORBUb/nCwAAAAAAAKBA4LF3gE6Ad9ZBLuGxdwAAAAAAAAC88xMAAAAAAAAAAACKFCo/AQAAIFLQch4AILnOfAoEx2XIFTzNBADZgMpPAAAAiBS+ycbNEACAv84+TuK4DLmAcgUA2YJfewcAAAAAACgAX3zxBR0+fJgOHTqUcvB4PD5AvqEcA0AUoPITAACggO2pmUUjTz2VTuUYOZJmNexRQ/JsTw2NHFlDBbI0AACR8/nnn9OJJ57oHN9TDB6PxwfIN5RjAIgCVH4CAAAUqD01I+mCVQNo7tYDdOCAiNq5RNdUUg1qHAEAIq+jo4OOPPJI1ZUaHo/HB8g3lGMAiAJUfgIAABSkPbR2FdH82ioq76N69SmnJQfWUZXbDQAAAAAAAIFQ+QkAAFCI9qylVTSeRvlVdO6poVkj1aNjI2dRg+o3UnyeNWuk7D+ypoFq5Gf1uLw7PHA80a9Be9RejsuJnHTuuCMrV9HzqnfyZVH9AAAAAAAAOhkqPwEAACJnD9VUVhPN3Sofh986fidd49ZQPr+TBtywjg5snU9UvZBIfh5POxeudd7P+TzRgFrnMfqE8cbUiv5LqLx8Ca3jx+w55Lj8bk/vPGvnDnTGS7Ys7jSdPgAAAAAAAJ0KlZ8AAABRI1uFzqcb1PPwfUaNp4t2tjiVmxdprUX1z66LBsT6JYznPl8vW3I6rUdPvaDaaeFpzrPvALrI1t9vmgAAAAAAAHmAyk8AAIBC1GcUjadVtFbWInamBpp1wSoaMJdbbHLLz/lOJScAAOTMF198Qe+//77qSsTDOA1AIUM5BoBChcpPAACAgtSHRo0nqq6sIX5dp7SngWadOpJqiCtGq+k+NWDP2lX0/MB+YowQnm+OVaj6jzeQqK/Td8/aZqflp6yMNebp1z/ssgAAgMS/eP2nP/2J3n77bdUnjvvxMPwqNhQ6lGMAKFSo/AQAAChQfarW0dbxzbTwAvVjQhcsJHqslqr69KGq2vkkBsj+F6waT1uXhHyr5kU7qbnSmZ59vHK6QUx6lZpn5aqdqr8zz53XOPOsbBaT0vqntSwAACAdeeSRdPHFF1Nzc7On4og/cz8exmkAChnKMQAUqm7LN3zUMbTkTTr99NNVLwAAAChK/AvslUS166oi0zKzYf0WKr98iOoCACgehw4dkl8a6Q4fPkzPPfccDRgwQHa7FUZHH3207Nbxq0m6d+/e6cdJHJdBF9VyDADF65133qF+49fRgS0/oNWrV8t+aPkJAAAAAABQALhyyG05F1RhBFDIUI4BoNCg8hMAAKCr6FNF6yLU6hMAoCviSqJLLrlEBiqMIKpQjgGgkKDyEwAAAAAAoIAcddRRMgCiDOUYAAoFKj8BAAAAAAAAAACgKKHyEwAAAAAAAAAAAIoSKj8BAAAAAAA6Wbdu3ejzzz9XXanh8Xh8gHxDOQaAKEDlJwAAAAAAQCc78sgj6cMPP6QDBw6kHDwejw+QbyjHABAFqPwEAAAAAADoZEcccYT8Fezu3bunHDwejw+QbyjHABAF3ZZv+KhjaMmbdPrpp6teAAAAAIWhYf0W9QkAAPyUXz5Efco9HJchVzqzHANA8XrnnXeo3/h1dGDLD2j16tWyHyo/AQAAAAAAAAAAIPJslZ9oYw4AAAAAAAAAAABFCZWfAAAAAAAAAAAAUJRQ+QkAAAAAAAAAAABFCZWfAAAAAAAAAAAAUJRQ+QkAAAAAAAAAAABFKfZr7wAAAAAAAAAAAABRZv7au6z8nHDBYdkBAAAAAAAAAAAAEFWnDvm3xMrPKTMflR0AAAAAAAAAAAAAUeap/Dxw4ECH/AQAAAAAAAAAAABQBGKVnxv/8BoqPwEAAAAAAAAAAKBotG17Rv7t1iHITwCd5N4nn6SZY8eqLgiCvMot5G84yKdgyJ/owzYsXNg2uVeseYyyA+nA/lD4sI0KH7ZRtBTzen29x6BY5ecR8t8s4rpUBMIvXn31VVVSUFaSBfIqt4H8DRfIp+BA/kQ/sA0LN7Btch/FmscoO4h0AvtD4Qe2UeEHtlG0oiuslyvrlZ8Aft5++231CZJBXuUW8jcc5FMw5E/0YRsWLmyb3CvWPEbZgXRgfyh82EaFD9soWrraeqHyEwAAAAAAAAAAAIoSKj8BAAAAAAAAAACgKOGdn4hOC5MtDcIJky0NIv0w2dIgkE/JwmRLgyjsMNnSIPITJlsaRGZhsqWJYphsaRAIM0y2NFEMky1NVMJkSxPFMNnSRCVMtjRRDJMtTRTDZEsTxfCDlp8AAAAAAAAAAABQlFD5CQAAAAAAAAAAAEUJj70jOi1MtjQIJ0y2NIj0w2RLg0A+JQuTLQ2isMNkS4PIT5hsaRCZhcmWJophsqVBIMww2dJEMUy2NFEJky1NFMNkSxOVMNnSRDFMtjRRDJMtTRTDD1p+AgAAAAAAAAAAQFFC5ScAAAAAAAAAAAAUJTz2jui0MNnSIJww2dLkJFqX0RVHHUVHXbGMWm39PXEFLWvV0myaZww/iq5Y1hofXkBhsqXJekQwb022NGlFkZQzky1NFGPTPJ+8Vdtn3iZv+iiHyZYGkZ8w2dIgMguTLU0Uw2RLg0CYYbKliWKYbGmiEiZbmiiGyZYmKmGypYlimGxpohgmW5oohh+0/ASA8EY+RC2HD9PhxtmiYx1d/2CT07/pJ3R02WKi2Y10mIerWDOlpzMckkPexiEv8kfkcdnikfRQi5P/666fRsvbeEAbLZ92Pa0TeX/XMJkSAAAAAAAgElD5CQBpGzmgl/zbtnu7/Ot2Q+aQt3HIi87j5nGCpgfp+nUj6aFpqPkEAAAAAIBoQeUnAIS37nrqd/TRTus7GkkTL3da3PXsWyr/rru+Hx3Nw0WMcZqLQVjI2zjkRd64eezVRsvv5ha382hK609ieX/00T8h1SYXAAAAAACgYOGdn4hOC5MtDcIJky1NTkL+J2coI6F/eS21HDpEhw410Gx+HLnfFbSsTQwbukD1i5MVVD/ZFJ9GAYXJlibr4eah+MyR0L8A89ZkS5NWuOssPnMk9I9IOTPZ0kQuRB43zOY8dyqfy2sfpGv3cqvP2dSwoBctu4srQRvUdlhMdy1rs08nImGypUHkJ0y2NIjMwmRLE8Uw2dIgEGaYbGmiGCZbmqiEyZYmimGypYlKmGxpohgmW5oohsmWJorhBy0/ASANval/ufoYM4wWyAorEQ2qemrbbmp3PkFoyNs45EU+DFug8lfEmikkW32W104TOb+XdjUQlffvrVISNezaqz4BAAAAAAAUJlR+AkAanEoQosHUt0T2sCqfWEYBg8EKeRuHvMi7pgepsmE2zZvCOexURusVnnpFKAAAAAAAQCHCY++ITguTLQ3CCZMtTW5CzbChkvp1707dZYyh5W5dR6x/OS2mcqp9bT4NFSM1/cRNq6KcW4q9Rr+/todlHvkPky1N9kPNLEJ5a7KlSS/UBCNezky2NNGOJvqJzOMqmf8dHT3o2nk3Ei0ud7ZNeS09WKD7eNgw2dIg8hMmWxpEZmGypYlimGxpEAgzTLY0UQyTLU1UwmRLE8Uw2dJEJUy2NFEMky1NFMNkSxPF8IOWnwAQV3It/f7TT+lTT/yerh3q0181txu6wBz2Kf3eHQgO5G0c8iIihtICM4+HLojn/++vRYtbAAAAAAAoeKj8BICicMwxxyQNgGRs5cYMAAAAAAAAiA489o7otDDZ0iCcMNnSILwRhl9afTqIeJhsaYotwvBLq08HEY0w2dIg8hMmWxpEZmGypYlimGxpEAgzTLY0UQyTLU1UwmRLE8Uw2dJEJUy2NFEMky1NFMNkSxPF8IOWnwBQFA4ePKg+ObhbD4AwUI4AAAAAAACKCyo/AaBo6JVTxx57rPrkQMUVhIVyBKG0PUJXXvkItanOlGU6vi6b0wLoLCi3AIXH2C/bHrlSXgsde2w1Nal+kEeFsH0K5diNcwikCJWfUNj4oMYHdPPA5vb3xJX0iJ6oqdoYfixd6U1A1cbwWMTm10aPXOkdVq2fWazLoU4+1mHG+NmQ8jIY+ZRsHZWmam8aDpmfoebByXxOztr4+vZJ92QeVHGVlmTrZx2u8jDkusW7VVx5pXWazrBHqCkhvSiv1uVIzLucXiRlkldSYlnk5Xwk9PrG55WYp6ldHGW9HCWwr2uTe9zSltddF3N/C9xfgsqDO8zIE2uehZxfsnH18N033H4yQRaOz5nSl9/IKz/efEg8DhYULmsh14s565bLdeJtXuB5BumxHQvC7qw8bgrlFCDv9GOrrfxGqkw3UW1VKa0V10QHD86nYaqvn8icA4tmG4XcPrw+Ypvo13Gip3MNlel6pngtkVdht2uut78lzyJ1/egnAuuFyk+ItvIaauYD/tobRUcDVdWqi2ne+Ub9gujGtbISw43fXdvTGS4No/mqvxxduHGtSvu7a6mnvBEbQFUN5VTTHE/3i1HmyUNwl6O5hsrpFzRK3/HdYSrmJ7tySFeYZZDDRD4NcCu+wqyjc3J0sjO+Hhye/PSdB2ujDSsb1OdfUL3tnqe8nGjlBrXM4mS+UvSSn1PHy+big21WBK6fELSdk6xbz2t/p8qwwGX2d7+j36npxHuraYuyOSwhPZdXJbYca+lGLgeeE02I7ZANaeUVlzMui2Y5m0/XhllfOTx+DEjMU22ckHj+rqyVI8l/XUMfHsLuL55tYRwXDIF5lnIZtpVJJ8xjYENVrbd8SFk8Pqer57X0O843Xv4Q5Ycv8AasnBBf1+YJtGtDlpYlF4bNT2G/4GOH2AYij1fmbJ14m/+OPKdpKB7GceBgzi6GAPIspWNrgWvbQ9vL+1Mv1RkkUufAYtlGKWwfeR2nX2811VKVuJKzXjumopjKe2cx8ixy149+IrBeqPyEolLe3zn8t+3ZLv+63eloe2QR/UL8La9ZGrsZGzafK5T8btaFnn2olP827KJW2SMPgpbBHaaEWkc+OXJ92Y1rw1XcGvOQ2jaQrHMTJ14+yf7CWus2gSaUVpGsu2qqp+0TJiROpxDY1i+pfKzbMJova43iFYLhtkMWpZJXqZYzH5ns850mK+uaYpkKOi6EkqMyfGMN1ZT/ghalWGGZ1vE5G1TrCfkN9oAqsXe5uPUFUc1S7Qag57U0Xy2cp+W8X4s3fdpuJbVsfVBN1W4LV31c32XxmZ9nWtXUJLu1ynB9em4rYRcfO0QZqKycoFWCu4xWup5ld6fPFf7xL2ISl8+dRkRbOxQ7/kLZs31ViyHPNlT0cqSXrzASxhXzmSHKdkMVDdDnk8k8ADKRsC9Y+nmOfcn47EspHT8FmV47vjt9w9P3qdj5xLv/xb5YtO5/AedA27JZp+Gzbqkqxm2k51da24dNoDk129X1lhh30XaqmSPO6Tp93ITrANsyCHK9wualkzfxLLnSu9zudPyWQ6bxyUO1jZ1p27aZN7/c7ZK4rezpQku5/KVx/ejJB6d/LJ22LazjpivL6xVuG4uwrZuZJoVrR1R+QrS5ByZulkjlNOEyZ4fq2ce5LW+oGqB2itRbA7Xucg7rpX1iu6zQi/rLr8i20x7b5Jrq5Q053VgRb8HlLqOMFE926bAtg4u/IeS/aliYdWyql1MTo4SspTHmwdo2rJQnyRvnLKUJstZtkfUgdVnFjbJCrql+u9iWfVTf1HFeM7eFSVZZ1k9Ksp2ztW4pGVYhK4No+x55sgi7HbImhbxKuZy5fI4B2ZCrcpT2uhpSKlNBx4WQ0i7DgftGH7p2zo3UkFChFiyt43PGnAviUrcFqmxNq8jWFxPIr/gNm6/G4RbZ1v2Op72L5qiyttataGYN26n/UnfcepV/Acsi+M4vNi2zlXETVQ9YSRNUK9pmcYM0SrtQ5mOH2OjUs+dl4vZpJcW/uBfLceUoIp/l8JO4fNzqs5lqwowMnUyUjVHiJlmVDdmqg7/AKV2rtqHYbuScY4LLsX4csF2T2cbtSdcuVa2vub/8tihgHgA5ZdkXrP1S4Lsv+Uv9+J6M3/nEu/85T3v57H9JzoHeZfPfh5OfK5Mpxm2Uhe2j9Lp2DpXyF8T8hWbpHLrW015A5JPvdYDfMqSul7hQ2y4v0pwnSmiXuv5r3eVcZwQuh2DLQ64Mk5ci6uki6zaznU9s28qeLpw0yl+614+xfOD+o6i+gj/zusav0TLfn1zZXq+w29h/3eJpRKwtpaoZ8UrfIFmv/LT91DwCwWGypUkIlVay9ecD0yef0CefrKVZxI/Xcs2/GD70TtUvTlaE3twUn4YW7gRFV2A/7h3HQxS9AoaX6c6h8WGxZeS4k4bGpuUfJluaWKg0gcvgDuNv6matpU94mBjXTcBTiU/T6ecw0zTRzerGxb15iSX3mUdHh/uodTn171VCl8latwb56KRn+dnQCpolDnKjtouDZYk7a14Gnk644OVinN9mf/ezSU+XECqN7/qpwdbtrAZJydbNTS17qX4i4r3j/WTEB6huTSxdbHTxIcl2sITJlsYTKl06eeUO5FQJ0+WIJ1DdSmxaxjHANk4KkfVypEV8sRKH8X8xqp/O0xVUpuRnIei4wNz5uuEOlZOJdTlSLcNOV/C+wWmHVooLmiqq2aD1c6cpwk3MYwX1495xen//MCWkUf1Fh9iFuPVjDVUOtQxTH+VnWzTdLMvOsceOciqhefnkX4GHy1bZ/JoKTuO8ZoRvDmQavngs4elw5S5X7Kr0fssSNL/YtIxx3ItUNazksglUzl+ayOk5NygTxEbv6OBjh/Pou5xG6DxRn3k5uNu2fEYakxwPkdUw2dJ0NNXRL/Ryw9GrP5WLY4FshSHKxOQ7J1MJ9w8sx/px4BN6arIoT3KuQrJxmTtvv3TucBEmfRgC4RemhDS2fcHWT40vOhLLr9nPb19SSZzx1GfR15lniOO7FiZzePjjuEobZj/Vg/vryxa0D1vPDfEw6cNkFOM2yur2GUoVs8Rwrniq1K4H5bgB1wEpLINJpteCpyufIOlopeZBc2hpfzHlpg7ipzYH9RHnhaDl4AnqecjdfJ07oJnm6PfYobaZCr9txbR0ptj4emSr/OmRtCzxtSHf2/FnmUAIGFefdnyEGHO4jGyvV+ht7LNu/EefN9+fNDRTK39W4QctP6FI9KIBCV9BDaX57oX2WlUNumMPtTufkuqlJrhjjz6GOFDLBkeDSByf4/SL+qfEAVb17lRBy8DD3G/ployi6s2yb6h1HDraybsldTySk6fNtuY5PvOgdj4R8weumDqOBsjnfUWXOPElbgu1zdLMw+OOO07+5TzIOr/1Cy2zdUvL5jpawn8H9aGSlLZDhtLIK7csOuUsHbZjQHpyWo6EwHXtNcDJNwu+KPQKUaaCjgspy1UZdirjl1RVidIZTkrH585Q0ocGNaykDbadqX0FXcUtEuR2aPZv3ahvKxFcOZSWsPMLSx47nOMG7xt87MjouJHt5YPOVzKZnuLtt5RohigTx121Il4eMinHYcfN1r4CkG9B+5JNIRw/bftf0DnQxjaNQj03RG0bJTk+Dq0S1+ez5lDeDpuyrDRTq7hH2TGgl6z42lG3gjasHESjh6o0qRDru7ZmB43St0vYbVYIZS4b1482+V63VI8JnQSVn1Akwt30lk+4LPRNe8nkObLlaEPVDFqhdtzN1aNkZVJ5TRWlc3zOKz4RqErgJaOqiatdQq3j0CrngBmmEssyj3b1qHV5TbM6EasWuVk+ILoVVow/m5EVlvUrXJupepTcklRTNbTTtkNMinnllkVasihWFlOTnYovvayYZUgflonAdeWLBf7LF4ayR3usxa64RixasTwJKS/HZ/NCrrVZq6wdSuJ+gqpmaBfY4sKz2l248gEkN1/sSwiDnLY41ro7ihh3RdBOE7gsQrL5mYzpyeMFf2miPlPsuKEuokmlNZfD5JZjczlSXT7In6GjaZa5jTdXO9cDfJzXH39MtRzrwo6byTwAMmHbF2z9dCXqVSHa8M3iHMWP98pLFb99iXXW8dM8jpvnE53v/pfkHKgL2oczXbdi3EZZ2T4aXo/5lqskYz76dUBKy5DUUBo9awctWrRDPlEip72kiqoGjXau3YKWw0evyU/R2kFVNCN+Qei/zUzZ3FbplL9Mrx+DZGvdsr1eaWzjIO0rFtGSWar8JIHKT4gGcSAfEKuAuIpWuL/YEevPN738q7/zZcHfXB2vrJAxSgwVN2+ptQ7gVk78TUm8xQvXJc1am2IrA8+yH5e8AjGXhs4npz5qCY3ifGwPs44lNPmpT+R4S0Y5adxWg4kt0QTPPNy0/C5GNy2f9PgvP3Lte8QsXGYeJpTF1Ldz+4qrZBmVloxK+q1yYHrPPjGL1n7yFE0uiVegdep2SCmvEsuiE9W0IvT6xo8BqeZp5/Jf181yGFdMO/vPcce5v2jO21GNni2e7XAVVVenn2fhyqQT9n2DL5ICL08NWTo+BxEXaVfxqxt4+eX6iHmuHRTfZuLCXV/iEnXxHVvXAc00mpdFXHzPcfvPaKZB1tUU0xYX6DvUMfY4Md9mNcQuYFlCzc/E8xe3f2p6A6oG0Vp5c8THDueR9zj30XfewsZycH45iZzlmKXKsb4caS0f5I+xjXlf6DXAU1YHzXFbg6dajnU+48qKCVVe5MEjk3kAZMKyL1j76cQ19NL4sZVjFK2Nn6f89qVOPX4a62Cc27z89z/fc2ACn2lkZd2KcRtlZ/skx+PargPUsNDLkNzQ0YPEtQI/tiy75P1Ieewb/qDl8Dd0fjNNWDnAOU/4bjPjfOK3rRLOO2EZ+RSq/PFiZHL96COr5TDL65XmNvbQ7i3kL8qHHL9bR9BD8WngVgEANu+//z7t37+f1jY308yxY1FWAiCvcgv5Gw7yKRjyJ/qwDbNs8y10fH0FfXxnihex0ma65fh6qvj4TnFZjG3TGYo1j1F2IB3YHwoftlHhwzaKlkiuFzdOmEG0NOA1XPp6fb3HIGrb9ozsj5afAAAAAJCWzbccT8cfr6KCqD7lis92WnEVj19B2x+slBWfAAAAAADZhMpPAAAAAEjL0Ds/po8/dsNptZkafrWKM37WXlkAAAAAAMWnZDI9leaPr2a98tP9eXkEwgyTLQ3CCZMtDSL9MNnSIJBPycJkS4Mo7DDZ0iDyEyZbGkRmYbKliWKYbGkQCDNMtjRRDJMtTVTCZEsTxTDZ0kQlTLY0UQyTLU0Uw2RLE8Xwg5af0KVsueUEOuGEE2jso+YreS223CLTnjD20YQX+AJAfmFfTk9K+aaTeTiWQo2G/AYAm/ZHaSyOCwBQ7ArgWNf+6FjnWuyEW2iL6gdQMPK0jxRv5SdnqNzh9VA7v3WYeVPXTo+O9aa5JXbk2EK3WMaJ3VTecotl+mp867yDhpkHrKDlEkKtWxclbsgr7iUqe/AVenJSvKG078lhyJ30yoNlRI3T6B+LOAN91z9UeQwYn7mVIFqkXOnSVUQ9rzqzvJj7crLjXhfZl5NKNd80W+rEiDSI+mjPmHT1Y2euxPPVf3tAFljLv3ZNZT0ePaqu/yyhXcRndl5Ncp1XSGzrU7ALWyD8znPJyqOlXMiy407PUv6STlcbFjvXuv0829E+70c9xyoRqewDea4YyjreDsW2TmEU+nqHXT5VLr3XnKrcZ7p+ecmjLVQ7bRDVf/QRffTRnTSkGMpnV93HIKuK+rF3qewB2vnhh/ThzgeojO6lirErqM06rJGmnXcLbZbjbhYXt+fRtMYyemCnGC7S1M0kurdCHBRXtInh36EK0S3u7Ki51Z1fG+3eISdK4yv684f49FXc8R3LcgUOq6OZvMzi5mdFW5jlskwjYd3yFyZbmtxFG61YxDfvM+mmH/Xw9N+wstFZIJHXdZv1cTqox4/uowfkPXxtp+afyZYmOxG8/pJveUwy/mZxkuKalpl1sXLOsdqT//kJky1Np0aB5pXJlkYPKeflxb4vS+68+cDIx73azbHhudiXTbY0hRPp5Zs7rjy/zayg72j9CvHYmWqYbGk6M9pWjKXzVo5X+5CIneOpeUP8/N6VwmRLk2lIsWOWE/J6zPd49CO6Q32Wu4sws04NX/0j6iGnm8l5Ndx1XrbCZEuTLMz8+/CO71jTuSHmYu2fzTDZ0uQlkpznJFt55OP3WC4XWnmTcYc4JjujefPV7eV0S9bpxvNKP1Y73Gn5z/tHP1qtzhsCr1Mq+0AnlINUw2RL4xvfuUNb/8IKky1N2tHJ622ypfFECstHZeKiRb9m2VxL08RddFmaZTVWxkMsg8mWJqVo2007yvpTidvdidvJZEuTVuR5HzPZ0kQxTLY0uYrYPpKD8NN1Hnsv6UOD+G/jLmqTPTTuMKX90XvEqZqvE+4jt4HgkDv4AlWMPv0h+Q3mEKf2k+6tV99ntm+kVXyeLxtPI3o6vTI3hO5QN6PTH9oSarkSGOvWZbnbR9y8D3H6OGLbjU9u2vaMKaER43nIDtpTjF81JV1/nbc8SgHjt++R3wZQWf+s7RBFqzjzKkflxW9ftvBOq8j35WTSzjdBjTuzQhszYFs6unh+J9P+KI078UQ6kWOc25JhCz00neiB+ybFX+JeMonucE/4+jgn3ho/53P/cbfSrePUsFu30JZb1Wd32maaE8fFW5R6hjnTjY2vpudop0dj4+v9i09Gx+Sk+4YuC9d5BcpehnQB5cmvrEdc2uVqy0M0XR6/6+iOZAfwdMx8gB4ou5fu8bR6U9KZd0r7QJGQx1GtVVpQGd5yq+ovgsexHIM942vTTb5f5Zh12UOst2cdRXTWsoddPmk83fTADrUfiOPTPTvogZvGO4NcQePrwwZOF0d1xVyGnBPLfoOYf+N0GiiWZRyvj7kM5naUvVQ3RyGe38118NsWMl0eypqNZ1ks+3bY5dbHcfPAMu28bMNUlkNfD30fYfow33zR+qep61R+bqmXF5TWG7/2PeL2TFDD2nY5m2KQ/nwf9aT+fAZ3b+SGXC9btYgzutwI7RtXyQ048ybtpkUddBI2IgsaphtSIS96acce2hhmuUzGunVZbbuc7aPfvAvx7XYfyfv0e+9JeMSwpA9XHzfSroRa8+gLs/4eWnnkZEHjO/nGRX2gKufqBAwJijavclFefPZlyT2ujpbVBzR+hH6sLO59OakM8s3ZbjPJW/fZtY+dmeEbk110k2pBVTdoOsnvB/h8zV+gerNf2UK3DlxF41VrwJ3iBm20fkHZuIP638fD6mjmvaOpvoI/76QHaBVtdLdLLI2IukE0/QbtJiI27A55rTDkDpVOTk9tW64EGeS2WONpO/t15FmuxzI5JmdyXk3rOi/fPPkXzydrGdL5lqckZT3CQpUrS3ncUi/vYOzH77As043rQ5NumkmNqzYm7NPpzDvlfaDoBJVhMWz0jljL7g9Xq/tGzzHY5xwhJN2vcspn2WNSOU8598+dK/mxpeekm2gQf9HEFfiDbqJJnu8pgsZ3KhwHua2jd/KTl/lSQpPuE/NXrb1Xu9+kxdi3Y37LVqoKvaxpPPt2OsvtfzzwTjuP2zDUcgTtI2HzxZl+Joq/8lO/qeODgP61pTuMa575cY2Uvk51W7XcS/Vb2mmj06TGc3PofcTE2FhBw7Iho3XrKtztVkb9e7rbs5FWxe4UvXYUXfOl1NY/UZLxh9whyrY46DldkrzgNy40QOgSedUJ5SV2XOXpNNL0gVrrNk3x7csZCsw3td3K+lP8HqCrHzszJFtF3UujVUUEX54kzSOjYrRkxHgqU18qSLFhXFHG20X29dIrVrnCTX8Sxqx0jbUKGe18ccx69qeye0erVgfi5uoO88Y3omzXY2kfjzI9r0aQJ/+0G21bGdL5ladkZT3KwpSrXN0fJJsuN+ogcVO9UXWnrQvuA6agMsyNcczjLdP7BZ0jku1XueS37K6UzlN5+DIn1LFlCFXMFHnPFTHXG3tJ0Pi8zcQeZI5SkPy2Yz7LVqoKvazp9LxOZ7mDjgf6tFm+tmGY5QjaR0LnS+a6wDs/l9KODz6gDzhWxd8TERu2Y6k4PQviAuwW9U6aknNkH9qxW3+/Uis187mcBlLvHk6/HsPHyXF37N7gDLthVOx9aA53XG+kNGxznVNoBvam4SGXS/JZt3yGyZYml5Ewz7YNzmM58mb/RBoon+sRXas2yPfC6mnZwN6d9/5Fky1NxhFi/R3aOFp57BEq/75Dt7v739M3yOGiACfkb2eHyZam86Pw8spkS6OHShXvl6PywvRut1983iWkDpeeNG66bO3LJluaQgrbMjrcblu+OeeYsnHD4+9ZKuBjZ6phsqXJRXiuTUSs4nf+9ehNAxtX0YbYO3KNcfR9y+j2DNPXQ/tsji//sw1rW0HjRnfQ03LZdtBSUSZk/x4/olXc794OuoEvasc571CPjZflMNnSZBpqytZhyY9HTi/POBmeV8Ne52UrTLY0ycKaf35lSEQsfUB5MqdpnUdAmGxp8hf+5cqROI57X3Jvnfk+ZhEl5zjX+p7xZI/YsdehD4+HM4g/96Dh48ro3unqUUQ1PHDeKiS3O519oEDCZEsTFPo6mesXNMzWz3qOCNivgsJkSxM2ki17wnr4DeMu93MKYbKlMcN3GXyGfefH4v75htn0o9h9dWIaW3cqw8ww2dKkGiktT5plyxYmW5p0I2gdfIdlaRlMtjS2CFpOs9szTJuH9Xhgps/j8SHscnjSGd2pDAsTfrrOY+9+SibRKnXxcd8V6nGnSbOJ+zTOmBlr/bLl1ivoPvG3bOn18W9LxbizRcLGGTPEsDJamvWve7bQrVfIucpph14ul2XduixuYSD+7NS++mnfuFpe4JUt3aEOJk/L/KXG1fHHBIX2PTvFvz4taSIs7PrHectj6uM7ysaNKI7WQp0g2nmVo/Ji2ZcTtZHz9OhA76+TF+m+HEq6+balXp7fxmlfuXb1Y2fGSvrQwMYZ8ceW2h+lR+XnIXT9UqIZM73vtLqVT/hynHj+ym0wsE/ax4f2RxfTfTcEvA7HbenbvpFWyzIhbLmVZAM1vrZwv1ztYpIdkzM9r6Z8nVfIbGVI51eeslzWoyBZuXLLBd23OPFpBs4v/htryd1OG2WGp37sjc1HEzhvi3TP9UUlqAwPqaAbkuWF7zlCSLZf5VKyZS/0fTfs8vExyfbEZND4xjD3VUMFyW875rNsparQy5qfdJZbjuNzPDAVyja0LUfQPtKJ2xOVn2zIHeTUEd5HV5w0Xpzch9Adsqa6kWYMOolOOukk4mvTG57+gFYZ780YUqEuE8rGJTbHFQV1kBiXx+fwPC0Vahhf8N5AT3+wSr34PvxyxSSsm+zb9ZSMoHHiyrpxhvuDAfGLw/hN/RByNmcjrY7tmSqdbftGWtj1F6zlMfn4W26Nl28ZorDyxbBvWe3Ciiqvcl1eEvZljWfeZbR0h/5oX7HuyyGlmW9b6sVJxpNnYY8dXTy/A4lz+Y6ltPMKVdYHzaBdakjJpFX09EB3e/CwXVQh9wEeZxytVuf+QTMG0tOpvs4mtp3F+KvH0Q6/8fmLXXcZZu6igW6tVM/+nmUeOLtIHnvX8oWDr8fSOyaH3TcE63GSB6RxnVeI/MqQzrc8ZaGsF6hQ5cpSHm3lwglu2MDDuIKRr/O53yCa0cjHcbdMKdbpmvgLGHNj+c/70UfHy3WQ7ruCThp/Kz2U8j7AUWz3J0FlWAx7emA8L8drX3bF8PiWc0SY/Sqnki170HoXgkyXL2h8I28W7xR7QaGybMe8l61UFXpZ85POcvM49mtGj0LZhr7LEbSPdN727NYR1C40DfwtH4DNxx9/TPv376e1zc00c+zYzi8rW35KJ49xLjRX/qiH6hns9V9NEDtgY0rjZEPe86rIIX/DKdh8KpB9OXLlKOV820I/PXkM3XfDGnr/9tQuQvJ17ExVlzkWvP4rmjCT6N6VP6LC3RpeOE7nXrHmMcoOpAP7Q+HDNip82EbR0hXW6+s9BlHbtmdkf7T8hK5jyO205gb+snkQTfjV66pngC0/lTfv4u6d7i3gm3eALgf7cnpSzbfX9xI/uH7DqBS/fUV+AwAAAABAAUHlJ3QpQ25/n95///1wLZGG3C7Tvh+hljIAXQX25fSklG89fkQrRdoUG30ivwsRb0tsDwAAAADooor6194RhRUmWxqEEyZbGkT6YbKlQSCfkoXJlgZR2GGypUHkJ0y2NIjMwmRLE8Uw2dIgEGaYbGmiGCZbmqiEyZYmimGypYlKmGxpohgmW5oohsmWJorhJ+vv/OTWHp988onqAvDS3ymBshIMeZVbyN9wkE/BkD/Rh21YuLBtcq9Y8xhlB9KB/aHwYRsVPmyjaCn29dLf+Zn1ys9XX31VfQKwc3culJXkkFe5hfwNB/kUDPkTfdiGhQvbJveKNY9RdiAd2B8KH7ZR4cM2ipZiXq+cVX7e++ST6hMAAAAAAAAAAABA58tZ5efhw9vUJwAAgK7j6O5fU58gig4fell9AgAAAACAYvDMtuNilZ9Z/cGjZ599V30C8IdyEh7yKreQv+Egn4Ihf6IP27BwYdvkXrHmMcoOpAP7Q+HDNip82EbR0lXWCy0/AQAAMoSWn9GGlp8AAAAAAMUFLT8hr1BOwkNe5RbyNxzkUzDkT/RhGxYubJvcK9Y8RtmBdGB/KHzYRoUP2yhausp6oeUnAABAhtDyM9rQ8hMAADLSvpLGVBHVrJlAJapXgjBpoiDT9chXPmAbhVcs+QBdXtKWnw2N6+m+++7zDR5uE6bGuH15JXUXN4lOVNLydjVAcIZ5+8kdT6Qds3yf6sH20fIxYvwxK8mTNGB8v3myppu14Te/oPoK7rhmP3e+CdMWwcNCzNO6rDEv0M3dF1OT6orj/vp0OThdYn9vfglNi2X/mz0TVePp6yc4+WHM3zp+evL/zYIqP5Z1j1Hrm7DOqfbXpTFuNL+FQf6Gg3zKLXF8084R3nOPClu+d5n8iag5G4n4O1uOOaqfruLh+HCOhyvUACFg3GhvQ+81gPV6iYf5HWcKXNS2jXmsSbgeK0Ap5XEax0jzeCxlazoBcGwOklpediXFWm6s62Xcs3qOVwH7YnvjOqKJFzuVYmnsy57x04BtpER1G2nzlcHXJ/p6uscmW7okgupYvOdnv3qYYNkqe77Lkuq2CtiGqcjpPhW4jLk9F5nrZa38fGXnDpo+fbpv8HCbSy/9kvpkxxu53xMjqeXQy3SIo2Uk7Wp0d+B91PgE0ezZRE/E+inllxJV/jZeGdf0W6qkS6lcdTqCxr8tPs+G/lRZFc9gXqZyWuYME9FAU70HFTHv8sXL/HcOfdoc7rcjAfMMXNakJlODPr9Ds2lYQv9lNFjPL6GpboWY32RaXGceNMT6bdPWTxx47t5m5m3Q+KlLVk5yrenmCnpiYr2TVwsuVH114mbx7l1U2yKGt9xG2+52t12q/XXpjZvvvEoH8jcc5FPuOBcUU2mx6mYlU2rV8dGJBnH8Le9/thrq6hr5E10VRDN6E43uJmKZ+Pyw6q8p7Us0VwzvxjGXaGqtHE3Wdi4Uf7g/j7twI/eMifQ2bNpC1OCWbe/5P/lxpvBFadskXOceqqeJu56zHIsLS/g8Tv0YaTseZ286wXBstksnL7uSYi031vXa20qDPeePf3buCbkiStwMyntL3hfLvY1i9u4imlh2lvjks8+GHj892Eaif1S3kT5ftU6zt71O7SUTaI1YjnKuQ+H6FL90ajJ2/nUsCednTz1UeNkoe/7L4ncOfIFutm4rv/6py90+ld3zeqrM9Qr1zs/BI+epT8GCa4xfoAcriWprtKbTopAvmKJ2qvbn6AkaSdOmjRSl1bxQHEnzanfR3bJSUmXgPJFOFzi+ZtgQmt3QSntlBy9Tf2rQbgiGTbvNW9Eq5y16PZhBpZ9nnkLYZU1X++ui8PcicYuovEB1iyfT6AViORZvMXaK/jRvXv/Y+jU9eBsNnjeVBssuV9D4qcvpNwtJOesyzy13Nmr7lHFBLbmYJtI6auSNlGp/XZrj5jev0oH8DQf5lEuyopMvoFR3AnFBdbct/7tI/kRWxdXin0aievGn/nHxT5mq2NQsGiFCfabtRG3qo67+VfUhLtLbcNhsWuB8CyrKqn7+D3GciYDobBvLdS6dRVMWFP4jg6HzOI1jpPV4nK3pJIFjs106edmV2MpN0qcEOfrdRg2qt6QP82nZ5DtdP3pLuBRbS1n3B/38QWdTf7dQ7G2lhtlDnAY2vC+W76LdsZnxuaU/9eX91G+fDTt+mrCNhAhuoxhPPcWFtMDv0fqw6VxqXRPrWJLUQ6UgcL1CCViWgHNgTEkPo55G8esfUubr5SPL5/VUmevlW/n5RUdHLGzdNoE1xvKCXK24Raxptc+G7j1lqtOagTNw8FSaEt8TpGTju9qXL6PF7o6eUEkoWApO7yn/RLXbptqbEjfcRv3cA5wI2+NNnnlyd8hltVtB5dr84gdhrb84sA+ep+1QTVvU/C+k0bNXUJ25HsO+L9aPW3+KA92222ha7ACrJBs/Rbn7ZiEE3uZ6XoU5ieVRXvMqHcjfcJBPecVf8lDt92PH5EwVW/4UDb2ylGtE54o/fA3TsVB8HsE9Y6K/DV9wHn3X388VseOMn8hsG3lN6X+dW8iK9RiGYzOkw1Zuhi14Od76LPZE4D5aXiXuudxWeZ6beB7WSvPkOC9Tw+Db6EHL/ZN9un64lZdqQcXjJKsIMiTdH/RKit69qDzW4OUs6jv4WdrltuKJ3RcGyHT8JLCNxOcIbiNJ1n+o+pOg65Kw6TS+dSxZPD8n3UbJpLUsF9KCBlLXc1OJH19zto1f/9RlvF4FylyvwJaf4ysfl9Gn94Wxz7qf//znnr/p1xg7TZSdptVnUdnExKbKvHG54q283zqaOM18dCvJ+FoFZb9dU9N49OssmjJvMi3WmunGGI+9r3G/QfCdZ5h1DWI89h6brt6/nvrfHX+ngnxkfbSTbtho26PrznJU9hM7jV5pqiQfPzU5+2YhrNg2q1eVvqp/Acp7XqUD+RsO8ik//Fp9ZqCo8qdozCGqKxMntuvi3e5j78vaEh6Zj/42FBfAfDypIarS39kdoeOMn2huG3FT7b5rNYfvssqWYj2G4dgM6bCWm1hrPu0RTVkRZWk0wnhYQ/zLp3Ix0rbdlvs923T9cIVUBhU4wfvDC3Qz32O7rdFKJtA8vu+OLf+l1F+1FtLvC31lOn4S2EZCFLeRdBZNWcPXJS9TS/9lTt5aKzfDpnNlWscSTvA2yhWuVCdZ19NSe6lWJ+XXP3X5Wa/cM9fLt/Lzg/ffo1/dXS5jz94XYp+5v+tnP/uZ529gjTG3qGzwaeUoDz7PUmU/Z+frV/ksNVgeB+dH0stnT6Up5gEl2fjuxX/DZHFU094VIZdJexydyZYSFtw6Uhw8H2xU3cn4zTPkumaGv71RH8VOUSeO1IvLnfl1L18hOhIfXS+ZMpVmi2VOPDmEGz8VhfPNgvEtVwGK9rcwyN9wkE+dKdutPlkx5U9xmEPUMYNodC/V6pN7jSHatMb5fF2l+Mf7yHzRbENu7eB5dM1V+McZP5HZNp7rXHXTFpFHi4v1GIZjM6Qjodzwo9GqgkF+kRR2p459+eRErIGMK93ppsl/f3iBbu6+jPq31HruseMtHnnZ3Eeg99HubfFKsiCZjh8E28gRqW1kIR97li1qg+sWQqULqmMJqodKUZj1CpTOsmgtcUv4iWS3Vatf/zRkvF4Fylwv38rPjz/+JBa2bpvgGuMLaRq/O1P/4R9xQLl5+T6niXKteiG/uwPaNl7JBFpjabUZevxhs6ll4jrqF/vWgJdpF5Vr3yL43xir1p+VxrtCkjHmGXpZM8IVluqgJXeK+A86cTTMtj267vMejdDjh5fXbxY8zeD1g7vTSkO+tkBPwwdS23sqwvSXJyrVAjflcR2R+xZGXx/krz99uZBPnUeccxJbfSJ/IkN/z6fnkXau7FS/4C5/7d2o+GTbdxMNH6M6Sol6qo9KlLdh+/LF8RadXD4b1A2MXm49x5loic62sVznRkToPE7zGJkgW9NJAsdmSIe13LivSZPHWNlHlFejEoPfoag+OsO0x6jF9cdy97PONl0/8jcktPmlyLpeXLlnqVTTtS//Z6ocrB6BNvfLEPts4Phpwjbyisw2Yk2Lva8JlI+BG68hZGHTKcF1LP71UKnyXa/QApbFb1t5XlHwBu1yy6Ff/zRkvl4+snxeT5W5XqF+8GjdozeqT8GS1RhzrT2/TyP2jsx+rTR6irh9iTVRdqXSVFlv4uzyH18uA02NPYYU61bLxL/8nvCtj2vYbH6Vgpfxzk/b403xeS6mB0Mva7wZuoxYBa3RP/Z4m96f3/ngHCBtzdZTeXQ9eHyuNNB+bcz6OVF+v1k4i6bUjKQn5LdC/Cu4/6ROJHzAuDTWVH4K/wgUp/G8PzXV/rr0xo3etzBifZC/IYjlQj7ljPz1QLEeDer47LwChN/tlKzVZ9fIn+iqJ1q6l6iuQ4Q4zy11H2nXXF0m/unppJHv9xTxcIUYVaRdJi6ZY+/89FaORnkblvQVF9FcNvn8z4/EtbjvfBLl1nqciZYobRu+3pNfeLvXY+J4Id8/poYXqvB5nPox0n48ztZ0guHYbJdOXnYlCeWGHw9271+rWmlwrPUfv29PlVcedvcuraW3GNbCv76shon83qWGxPhO148xP3nPGf5ezLY/cIVRA8Vby3G4FU7OLzF/zflVatX4SFYweY5pSfbZpOOz8OvgwjaK4DZyDRtCgysrYusir1v4UX6u5HWPS5xvfunUZLyS1wfZ66E4fWrr5rteKfBfFp9tJcphDTfYk+nj9Ty+/dOQjfWyy+55PVXmenXrENTnmIbG9fTKzh2qK9F5AwdRednlqiuuqakphxkHxYJr4AuunPD7XOqGpPE+2NwqyLxKB/I3HORTJHH+DBs+XHVBFDVt2oQyXqBw/Mm9Ys1jlB1IB/YHf/zL53WjX9Z+fTw1mY7vwjbyh22UW1ivaOH16jjpbGrb9ozstlZ+puvwYevbMgEKHn/z8GDf2owP9GCH/A0H+RRdR3f/mvoEUXT40MvqEwAAQL5wazPbD+tcSrUBjz13Dl62LTT6ULq/KJ3p+IUC2yh/CjnvoVA9s+241Co/+dfc3R81CoKWnxBGsX6zkAvIq9xC/oaDfArG+YOWn9GGlp+FC8ef3CvWPEbZgXRgfyh82EaFD9soWop5vdDyEwAAIIvQ8jPa0PITAAAAAKC46C0/Q/3gEbf8DINrVgEAAAAAAAAAAADywayfDFX5GeaRd507E/zFX/zFX/zF367wlx+b5taD+BvNv2G3M/7iL/7iL/7iL/7iL/7iL/4W/l/zUX688xM6HRdGlJNwkFe5hfwNB/kUjPMH7/yMNq4ERRkvTDj+5F6x5jHKDqQD+0PhwzYqfNhG0VLM64V3fgIAAGQR3vkZbdz6EwAAAAAAigfe+Ql5hXISHvIqt5C/4SCfgiF/og/bsHBh2+ReseYxyg6kA/tD4cM2KnzYRtHSVdYLLT8BAAAyhJaf0YaWnwAAAAAAxQUtPyGvUE7CQ17lFvI3HORTMORP9GEbFi5sm9wr1jxG2YF0pF1u2lfSmDErqV11WoVJkyNZ3R8yXY8Mx8c2CiGq26jAYb2ixVwva+VnQ+N6uu+++2Jx2mmnebp5uE2nviSVd8juX6Pusaik5Za9s+lmLc3NL6i+ghp/zPJ9qgfbR8vHiHTujq7Pg/u53eZ0/NLLBEmWwXZQ8UxnMd3My+R2a+FddqFpsTeNPi9N+/JKMdyeX50hvy/TfYFu1vPILx+0vLy5SfVjqfbXpTFudF88LPLZVrZdyF8F+dSpkD/RN2cjET+wwjFH9bMSA1sfVp9dFaKfGnejd+Rob0Pvec16XcPDfK4JCl3Uto1zjeW3PQpTSnmcxjHSeq7L1nQC4Nhsod9jiIhC+exsxVpurOsVVB4C9sX2xnVEEy+mEu5IY1/2jJ8GbCMlqttIm68Mvj7x1H+o47wtXRJB9Rze83N6dSGplj3rPI1t6rcssg7JzYs0y0HY82ZO96ksLF+6zPWyVn6+snMHTZ8+3Td4uE2n1xiX30Yth16mQxwtI+mJft4M5cJWTsuc4SIaaKq3oJRfSlT5W4qN0vRbqqRLxThKyQRa03IblfN81kxwdn4xTvniZfadxZI+6TLYeKYzmxascddR9VPTWjPlLDWCwDuEWPAGNezQoWU0e9vrloK0jxqfIJo9m+iJxiTLkSP5/2ZhspZPtTQl4agubhbv3kW1LWK4yPNtd7s7ZKr9demNG8VvYZyD/FRarLoTIX8Z8qmziZOre4zkdSxfHD/2x3Tl/ImCCqIZvYlGdxOxTHw2KzeVh1uJOhaqDs3GOqLG0UTdxPgjFqmejkhvw6YtomCLsqnO/YO165qmmyvoiYn1zrAFF6q+0RKlbcPH9X5PjIxfmx6qp4m7nrMciwtL+DxO/RhpP9dlazrBcGy22NtKgz3Hi39OqwKgmBVrubGul1950O8reV80rpn27iKaWMb3oT77bOjx04NtJPpHdRv51VmY9Sh+6dRk7PzrORLOzy0jaVcadSGplL3AeWp1Ooca+lNlVfx8x7ji826aHK+X8j12Z+e8mbt9Krvn9VSZ6xXqsffBI+epT8FyWmOcjNph4hn6Aj1Y2Z8atIv9YdNu81Z20kiaV7uL7paVkWrDzBvpDPLF44jJPBimBUWYZcii8l4kbguVC2mBW2Gra3+OnhDrMG2aWM8n8nNBntdyEobKozLOvJKLaSKto0bOqFT769Ict+DzyqJkSq08uMUO1ibkr4R8yqOSHjRYffRA/hS2iqvFP41E9eJP/ePinzJZH5rgul5O5ajHHKLhm8QwHjlRpLfhsNm0YJj63P66uIFxrwVeoLrFk2me/kVpBEVn2/A1H1FtjX7tdRZNWWC5FiswofM4jWOk9VyXrekkgWOzhX68oLOpfyoZ2kXYyk2yJwll/363UYPqLenDfFo2+U7Xj94SLsXWUtb9wa887G2lhtlDSA7ifbF8F+2OzYzPLf2pL++nfvts2PHThG0kRHAbxYSps2Bh07nUuibWc1jOzyUTaEEa10eB6+WRwjyHDaHZDa20V3VypeDd/etpzTRxPevyKwdZOm+GX68UZfm8nipzvXwrP7/o6IiFrdsmdzXGIfENrVtwPDcAiuWGt/eUqU4rCd4wg6fSFM8Idr2n/BPVbptqabZrCLkMWSEL023UL8mBOdaE3Sh8nSnv5YRWULk6KSVthZtn+c+r4ob8Dac48klcNIkrXmffn0riis+54MsClKMIqDhX/DM8/si88dh79LfhC86j71VENe7NAV+DaOe7UDdtBSgy20Ze86kL/Igp1mMYjs1J6DelEGMrN8MWxFtczY49AbiPllfdFm+N5bmJ52GtNE+17GoYfBs9aLlvtE/XDz/BolpQ8TjJKoIMSfcHvTz07kXli7eoxjpnUd/Bz9Iut2amaQstdivN/GQ6fhLYRuJzBLeRFLLOInQ6jW89RxbPz0m3kSuFebYvXxbLb674rKJ/8j7ha8rBsTv0ekWMuV6BLT/HVz4uo0/vC2Ofde4PIbl/c1ZjnFMX0ujZ4uag3zqaOC3sI2Fn0ZR5k2mx1mw3/8QyqcfjW/ov87nRcZqCO03Yz6Kyifl59D2/5eRCWqBOct4m44UpmvtUdCB/wymOfIo/9t5Se2lWj98oRxHRtsx55L3baHHRP8PTajT621Cd22qIqrprj67FHquqp9ptyW7aClM0t424qXbftZrDd1llS7Eew3BsDiLOiXzv42mpDMxabmKt+bRHNGUFxG00zVZDxMMa4l8+lYuRtu223HPZpuuHK6QyqMAJ3h+M8lAygebx/XFs+S+l/qo1T1PdCpo9Osk9c6bjJ4FtJERxG0lh6ixY2HSuzqnnCN5GKWhQFbsi+u2aql5NxOvwLDVUVjjryy2VOZ3nOiI3x+6srVeBMdfLt/Lzg/ffo1/dXS5jz94XYp+5v+tnP/uZ52/ea4z1lpZ6K1CXbAWRiB9FL5891fLuxwDDvk+14mD6YKPqtklhGbJJNiGW30653+Yo8iD/LFX2Uztapdi58vDoe+F8s1D4j/sU67cwhQL5G05R5JP2LXYJt97PYst3lKOoqSfa25OoVHUKRbMNubWD59E1l9GqI0Iis23kNZ97XFE3bTl+nCtbivUYhmOzH3Hz3H0Z9W+xvfceEsqN592D9VQbdqfW3+knIqElV7rTTZP//mAvD/EWj7xs7iPQ+2j3tnglWZBMxw+CbeSI1Day8K2zMIRKF1TP4Tk/ZybMeknJ5umWvYbJRLF3mcYrfGXwNQSni7Ugzt2xO/R6RYy5Xr6Vnx9//EksbN02ea0x5oNTv9to8Dy3cFxI02p3Ubn2DUHTg7cR1X4/sQl3yQRak/IPAYjCya0/K413h3iksAyZalrsfYQ7VhHMO4nzQ1CyKXit+uED90AXqwCIp8u1vJYTkU+xdZQHyfiBnltpyDzUm8rLbwzVN3ip9tfzNOVxHcXzLQzyNxzkU854Hu95g3bFDtzIn8jQ3/Opv/+T3+fJj7J7n2T38rwjVPzTu41oO392RHkbti9fHG/RyeXTPa/p5TZLNzP5EJ1tw9d8lPCjBVEQOo/TPEYmyNZ0ksCx2YLvl1DxGchabtzGNfIYK/uI8mpUbvA7FNVHZ5j2GLXI9+XuZ51tun7kewG1+aXIul4hykP78n+mysHqEWhzvwyxzwaOnyZsI6/IbCPmW2dhCJtOCa7nsJyfRb7erE8/JN/1ShBynsNmU8vEddQvsFWr4FcOsnTeDL9eKcryeT1V5nqF+sGjdY/eqD4F6/QaY625cHdu/tvysvYiWJHXU2rFAW6qM1wE/+p64PsTTFzIrM2NFVFYG2arz8ySPuky6OsgQu7kyeZrIw62g90m0hwJzaH1puCu/Dz6ntdvFnr3EgdON4/4HTDue/+4MuTSWFP5KfP6O98ceSrUU+2vS2/cKH4LI3+5TayLLL8in53KZuSvCfnUyUomUA1/GSWPkfzOT9tFZBfOn0ioJ1q6l6iuQ4TYhkuvU/0N/GvvPLyniFilqBi3stEZt4N/9b1SVZw6orwNS/qKVeOy6Z77W9zzmii3NSPpCTmMf/X9nyJZ2RGlbcPXfPImRh5nnOOFfP+YGl6owudx6sdI+7kuW9MJhmNzIq4gaKB46ygOTwUDJJYbfjx4sFPuule10uBY6z9+l7gqrzzsbnGNoYbIYS38C9pqmCi7u9SQGN/p+jHmJ+8R+Qtc91Unfp8dtv0hqDzIfU50y1+rVo2EYu9UlF0syT6bdHwWfh1c2EYR3EYuvzoLs/4jad2GLnk9h6yTcbelnF4rjZZ1Mqmtm+96WfjP0ytWXxRQ7+NfDrJz3kxlvVKT3fN6qsz16tYhqM8xDY3r6ZWdO1RXovMGDqLysstVV9zhw7l+oBsgR/h9LnVD1Ps2IOuQv+EgnyLraHHShug6fOhl9QkAAABs+JfP60Z7GxulItPxITlsIwCvZ7YdR23bnpGfrS0/uWLzhhtuiMX+/fs93baKT5a7GmMoJoVYTtp378r4xc65UCz7FPI3HORTNCF/og/bsHBh2+ReseYxyg6kI7/lhlubxVt2xaMy4x+sy3y9XqC6xZNpdNqVYpmOH4dt5KfYt1Hu8j6s/Ja93Okq62Vt+ZkutPwEAICuCC0/ow0tPwEAAAAAikvSlp+mn//85+pTsGKtMYbsQjkJD3mVW8jfcJBPwZA/0YdtWLiwbXKvWPMYZQfSgf2h8GEbFT5so2jpKuuFlp8AAAAZQsvPaEPLTwAAAACA4pLzlp/4i7/4i7/4i79d6W/Tpk2yAg1/o/k37HbGX/zFX/zFX/zFX/zFX/zF3+j8daHlJwAAQIbQ8jPauAIUAAAAAACKB975CXmFchIe8iq3kL/hIJ+CIX+iD9uwcGHb5F6x5jHKDqQD+0PhwzYqfNhG0dJV1gstPwEAADKElp/RhpafAAAAAADFBS0/Ia9QTsJDXuUW8jcc5FMw5E/0YRsWLmyb3CvWPEbZgXRgfyh82EaFD9soWrrKeqHlJwAAQIbQ8jPa0PITAAAy0r6SxlQR1ayZQCWqV4IwaaIg0/XIVz5gG4VXLPkAXV7Slp8Njevpvvvu8w0ebpPzGmPeCcUNZnc9xiymm8d8jcYs36cSsRfo5u6VtLzJTL+YmngwT2fMSmqXaRM13ayNc/MLqq+g5u+d1z5aLubf3Zhe+/JKMb5YBk9Pc3mM4U2LtWEitHlbp2cKGN9PqOlmWed+syDKgrmttXy6WRYIC780qfbXpTFu1L6FccqTsy6xsJVD5G9u1ikX0xQ6P5/4GO4sC4f3mKvpsvlT7OYQ8feybjxcofoLczbG+4tkVn5pAsaN9jYM2l/UNQoPC3FNUIiifh70PX4VkJTyOK3jawrXYqlOJwCOzTYhz69dWLGWG+t6GfemnvIQsC+2N64jmnixUymWxr7sGT8N2EZKVLeRNl8ZfH2ir6d7nLelSyKobsN7fk6v/iMrZS+hTkiEZZ3DbavsXOflbJ/yK79B5TqLzPWyVn6+snMHVU2b5hs83ObSS7+kPuVQ+W3UcuhlOuTGmtm0YM0yGlz5z7EC3HTzVKKGWprS25u+pXYXlScpFLxTlNOy2PQbaKp3Y5RfSlT5W6cSlTX9lirpUjGObh81PkE0ezbRE43GhtSXv6E/VVapgs4FQEykwR12aBnN3va6usALmJ4rcHw/IaabA51STgTnADeVFqtuhzhA3L2LaltEHrXcRtvutl1E+6VJtb8uvXE7K6+ypWRKrSp/TjSIslXe/2w1VNHLKq9zufpSokvlr7j5sOaBLtV1KqJ8atoiMkcsiyxHfHzXjrkxfsvsl7e5yHNH1PbTgjdnDNHcbkTdOOYSTf2JGlBBNEOc2EeL/qOXic8Pq/66OUQLxR8el9Ms3Oj09u3viPQ2DNhfmm6uoCcm1jvDFlyo+kZLlLYNX3f0e2Kkdp1aTxN3Pec5XhSi8Hmc+jEytWuxVKcTDMdmi1Dn166tWMuNdb32ttJgT3lQ99O+1+qOvbuIJpadJT757LOhx08PtpHoH9VtpM9XrZOssyiZQGvEcpRzXQm3NvVLpyZj51+3kXB+bhlJu9Ko/8ha2Uuo0+IWtqmfG7N1nZezfcqv/Pr1zzJzvUK98zOsnNUYJ3UhLXArEpsWy8rLBcPUIE1J2UgqD9xpXqAHK/tTg1Zwhk27zVvZSSNpXu0uultWiKqCOG+kM8jV/hw9IdJNmyb6PxFw0TtsCM1uaKW9qpPKexHX1zrEOrnNzMNOz298P2Gnm2WdVU5kRRwfRFW3pNa5jDOm5GKaSOuo0VxxvzSp9telOW7+9qksECetuxdPpnlTjBOnONg1zB5CchfldS7fRbu7cv6W9KDB6qNHqutUTPk0bHb8GN7+urgg049tSpj19cvbbOW5Eun9tBAtGiFCfa44l6htt/p8tfinkahe/Kl/XPxTJutDfdW/qj4YLP0jvQ1995cXqM52DI6Y6GwbvoYkqq3Rr73OoikLklyLFYDQeZzGMTKla7FUp5MEjs0WYc6vXZyt3CR7KlD273cbNajekj7Mp8Wy73T96C3hUmgFzaz7g14e6Gzq7+5gftfqEp9b+lNf3k/99tmw46cJ20iI4DaKCVtnkbW6Dcv5uWQCLUjj+ihwvTKV8rkxe9d5OVsvv/Lr1z/LzPXKauVnzmqMdQ23UT/3gCIi1ipTZGDDYDFMZJxeeanj5tsNg3v47zS2iwDLTXLvKVOdb0q5IA6e6rQw1cSaiXsKZ6L25ctosX7QIbVuxoE11PQCxvcTdjmzrVPKSZGIcl41PXibOMt83ynfut69qHzxFvWFwlnUd/CztCv2DUDnyl/+8hc24pwuj2PcUn12Yj4VkPzkk3o0L+X3Dfnlbe7yHMe0XJjjPJ5eKz72us7pFcoiornij3y8faH4PMLp7dvfEf1taNlf+JqGVqgyLyLktUGhicy2kdeQ6uYkYor1GIZjs590z69dg63cDFsQb6E0e/Ey1UJpHy2vui3eeslTOc/DWmmeHOdleY/6oN6sTrFP1w8/waJaf/E4KW67pPuDXsESdK3etCV+/+on0/GTwDYSnyO4jaSwdRbZrNvI4vk56TYKy69OKxVZvM7L2noF0cuvzq9/Fpjr5Vv5+cH779H4yscTgvu73F+Bd//mtCbcZTQRXpNQ061/ayFoBavfrqlZeuzrQho9WxS0futo4jRzek5za6eZ+FlUNtFodu27PGfRlDXOOrX0X6YV4CTTi/Eb30/Y6WZfp5STIhHZvPJr9clKJtA83n/UflC++FLqn6dmB/nLX744EocD3l9rL6XF2uMLhSg/+XQhLeDjfA1Rlfu+5lD88jZ3eY5jWi4sch5RrxQfO7yPqAfTHm9f1qY9Gu/X3xH9beizv8Sumeqpdluym7bCFM1tI26q3XdwpdjyJx+K9RiGY7OfdM+vXYO13MRa82mvXpA37LfRNFsNEQ9r0K91ibbtttxn2abrhyukMqjACd4fxDUS39e6LeMCrtWb6lbQ7NFJ7qczHT8JbCMhittICltnUZh1G8HbKAVJ67RCytJ1XtbWy5dRfmP8+meHuV6BLT9/dXd5Quh+9rOfef52So2xH3Fg4sfdW2rFvdKD2o6hF6xkFZ/cylN/DJ3JGvVE/Dh8+eypNMXcSvJA+ixV9nMOJP0qn6UGvdm1uzwNk8UR1v4IvvPeRP52aYvTujRoehae8VW/BGlMN1vyWk4iJqp55dvqU4l/iyoO1OWZPVaRibzlr/aNasmUf6LaTmx5nY68lkP+9tbzKE4SfnmbwzzHMS2H+PH2NnE1HvR4u47fF7ppjfP5Oq45VY/G+/VXimYb+u4v+W1ln4nIbBt5DekeV9RNW4qPaedLsR7DcGxOItXzaxeRUG740Wj15alz3ar6J5OsciPd6abJf394gW7uvoz6i5to/b7Wfq2+j3ZvC9doIdPxg2AbOSK1jSxC1VkIGddteM7PmQmzXvmR2XVebtfLXn79+2ePuV6+lZ8ff/yJb/jJfY2xH5FxfGBacKFzU7ttasIvloVzIU0zfhTJtxKnZAKtsVSmyubWteqls+7BxHaTPWw2tUxcR/3ceTUt9jZ3ls2zexGFnZ7P+L1lofL5BTff6drHyZb8lRNBbwbPB8lYE2unlYbMQ780qfbX8zHlcR15zat0WVt9avmraV/+z1Q5WD1W0ZXy1/OoyRu0K/YCIpRD1r58cfybS16ehvgFWdL88ctb3zzvovtpIXt4Y7xikt/z2VNcyZnv+dTf/+k+Ii/+0PbdRMPHcE+hVIyrPvr1V6K8DX33F73cZulmJh+is234GpLiP2QZIaHzOM1jZIJsTScJHJsT+Z9fwWUtN+5r0WSeyT6ivBoVKvwORfXRGaY9Ri2ujZe7n3W26fqRvxWhzS9F1vXiyr0klQ+ea3VzvwyxzwaOnyZsI6/IbCPmW2dhCJtOCa7bsJyfRb7ebNyXhuG7XtmQ6rlR75/hdV7O1suv/IYo19lgrlfk3/nZfcxiunmM/v62s2hKDf9iWSUtD6r5Nqbj7lz8zQL/wrvbn1uThm+GrDe3dvk3u47Nix+JEgfLwZUVsfl2l81/L6bdYadnHd+v+XBqy5ltnfWNifxlUH6xtdrWTmWuKB/z+jvfColhg+e5ecSVIZfGmsrb06TaX5feuIX77ZKfffLdOolfGOj5q7aN2CbyV/f0Vz90lfwtmUA1/EWL3F/5+OUe+FEOWUlfcYHCy+Iey1rc43uI/PHLW98810Ujf4oe/x5RHb+bU0RdGdFo9/2c9URLxYmdh9WJbbjU8i7QetFvmbjyi73bs5eqOPXpr0R5G/rvL6Lc1oykJ+Qw/jXQf8rpBWauRGnb8HWd/GJbHmec44V8/5gaXqjC53Hqx8jUrsVSnU4wHJsT+R8vwJVQbvjxYP5dCc6zqlYaHGv9x+8SV+WVh90trjHUEDmshe9H3by+jXapITG+0/VjzE++UoO/wHVfXeD32WHbH7jCqIHireU43Hti27V67J2Ksosl2WeTjs/Cr4ML2yiC28jlV2fBlWHuMd63biS+7F7J6zZkvYu7LeX0Wmm0rONJbd181ytVRl2UU1ZSPTeK/lm6zsvaehn8ym9Quc4mc726dQjqc0xD43p6ZecO1ZXovIGDqLzsctUV19TUlLOMg+LBNfAFV06aFlP3uiFZeids9hRkXqUD+RsO8ilYAefPsOHDVRdEUdOmTbh+KVBFcx4sYMWaxyg7kA7sD/74l8/rRr+s/UpzajId34Vt5A/bKLewXtHC69Vx0tnUtu0Z2W2t/EzX4cO2t2MCFD7+5uvBvrUZH+jBDvkbDvIpWCHnz9Hdv6Y+QRQdPvSy+gQAAJAv3NrM9sM6l1Jtjh8PTY6XbQuNPpRua+FMxy8U2Eb5U8h5D4XqmW3HpVb5yb/m7v6oURC0/IQwivWbhVxAXuUW8jcc5FMwzh+0/Iw2tPwsXDj+5F6x5jHKDqQD+0PhwzYqfNhG0VLM64WWnwAAAFmElp/RhpafAAAAAADFRW/5GeoHj7jlZxhcswoAAAAAAAAAAACQD2b9ZKjKzzCPvOvcmeAv/uIv/uIv/naFv/zYNLcexN9o/g27nfEXf/EXf/EXf/EXf/EXf/G38P+aj/Jn9Z2fYWRzWgAAAAAAAAAAAAC6TVtbcvPOTwAAAAAAAAAAAIB80is/s/rOzzCyOS0AAAAAAAAAAAAAP2j5CQAAAAAAAAAAAEUDLT8BAAAAAAAAAACg6OXk196D4MeOgt375JPqUzQV8vJHPW/DwnoWl66ynlGF7VO4sG26Bmzn7EFeFj9s4/CQV17Ij66tq2x/rGdxMdcTLT8LyKuvvqo+RVMhL3/U8zYsrGdx6SrrGVXYPoUL26ZrwHbOHuRl8cM2Dg955YX86Nq6yvbHehYX23oWdMtPfh1pV4m33npLrbXDlqaQo5CXP+p5GzawnsUVXWU9oxrYPoUb2DZdI7CdsxfIy+IPbOPwgbzyBvKja0dX2f5Yz+IKcz1daPkJAAAAAAAAAAAARQnv/AQAAAAAAAAAAICihJafAAAAAAAAAAAAUJTwzs8CCZMtTSGHyZYmX2GypSmGMNnSFEOYbGmKIUy2NIj8hcmWBpGfMNnSIKIfJlsaRLgw2dIgoh0mWxqEEyZbmq4UJlsaRPGGyZamGMJkS1MMYbKlKYbwg5afAAAAAAAAAAAAUJTwzk8AAAAAAAAAAAAoSmj5CQAAAAAAAAAAAEUJ7/wskDDZ0hRymGxp8hUmW5piCJMtTTGEyZamGMJkS4PIX5hsaRD5CZMtDSL6YbKlQYQLky0NItphsqVBOGGypelKYbKlQRRvmGxpiiFMtjTFECZbmmIIP2j5CQDFq205XXHUUXSUHlcspzYetukn3v4/WU7Lr9C6tbhiuRxDTO4K0X0FqU5HwjyM4QAAAAAAABB9fO/n3k/qLPedP9nkN8y4X0y4L3VHhGzCOz8BoLiN/CXt/uwz+syNp6dQTz4BlRE1xvo30k3biC5/WnXv/iWN1MZ7ekpPMaE2Wv840U03ET2+3jjd6fPYfTU93lc72QEAAAAAAEBx89wT/pK23a1VkurDGgfTj6vUMOt96Z7EylXIGFp+AkDXNHIA9VYfiYbTXVwpqrqs2tbT43Q1TZt2Ndd++p+Qek6hp82THQAAAAAAAHQNe5tp3eA+9vvL4aPppnXNtFd1pnxfCmnBOz8LJEy2NIUcJluafIXJlqYYwmRLUwxhsqXRg9b9mPpqjxFcsayVOkouo4mk+s/bZB+PvN2tjY8TTbyMSuS4j1Njq3/ajpI+VLruVdqr90sxTLY0iPyFyZYGkZ8w2dIgoh8mWxpEuDDZ0iCiHSZbGoQTJluarhQmWxpE8YbJlqYYwmRLo4dIYe+v33eWbaOHqobFh2njtC67m+6ZPZqGcXeI+9JshcmWphjCD1p+AkBxG/kQtRw+TIdVrJGPsPekKWuc7pYBd9PRRx9NR/+kyUlv1UbrnyCaeLkz7uUTiZ4wH30HAAAAAACArslz3zmPmvuNib/bc9311I/vOUX0a55Hh+8apgakel8K6cI7PwGgS+s5ZY042TTS7MVPk+9ppm09PbFuHV3fT52wrl9H654IePS9bTdtHzmAeqlOAAAAAAAA6Cp60YCR6iNzK0YbZxNt3229jwx1XwppQ8tPAOh6mn5CY/Sf2EtSWdnGzT4falHf4nG00EP0BFkbf7YtpzH9rqfSeXhXCwAAAAAAQJcjG8+UUl/zhnDYXdQy8Qnq57bu9L0vbaKfHH00oRFo9uCdnwUSJluaQg6TLU2+wmRLUwxhsqUphjDZ0sSC/9MeMZBxxTJqGzqaSq/vF+/X73Ga8OC1VKKPJ/6Kf8T/bdT4eAdNuLzEGSajhC6f0EGPN7YlzoOn1XKIFgx106YXJlsaRP7CZEuDyE+YbGkQ0Q+TLQ0iXJhsaRDRDpMtDcIJky1NVwqTLQ2ieMNkS1MMYbKliYV57yfiimV+94QLaKg7jvgr/pF/S679PTVQWdL7UrUwznyzECZbmmIIP2j5CQDFq2QKrTl0iA7psWYKldAwWuDpv4amlKhxGI8n08kOmrLGGC6UTFlDa7hnwjwS0wIAAAAAAEDEWe4vk94Teu4tHcMWiDSB96VO/wXuq0EhY3jnJwAAAAAAAAAAABQltPwEAAAAAAAAAACAooSWnwAAAAAAAAAAAFCUCrrlp+3lpcUaJluaQg6TLU2+wmRLUwxhsqUphjDZ0hRDmGxpEPkLky0NIj9hsqVBRD9MtjSIcGGypUFEO0y2NAgnTLY0XSlMtjSI4g2TLU0xhMmWphjCZEtTDOEHLT+h07U/8l065phjYvHdR9rdAfTd7z5Cqsuh9+PP7nhaOmd63yV3MpAGPW/duHmzvX9C3rvD1DZIth2VQt5um2/W1pfzAQAAAAAAALq2hPvjm0neLSb0T7zPTXaP6VtPkg+2e3qWsJ7HUGxVkuXB5pu1YSI6+T4b7/yETsU79DlPTKTXPv2UPpXxGk1sXp+4U9mUXEu/f62Wystr6bXfX6t+La2d1j9BdOONRE+sz+PBoRhwvsa2i4gFQ+39Vd4nbMvXJlJz6G1QuNuN16ucGmLr2yC68nriAQAAAAAAgMKg3R+/Vrudyt1KPP2+uaGUKqd5Gw0F3WNmVE/S2fT1fK2Wtt+tVZL65QFXjJYTNbjDPm2gG7fv7tT1Q8tP6ESb6cFKotoH3YpLVkLXLtC7U9S+np6giTRt2kSuRSvMg0NRsmzLkmtpwbUht2TBbjder1JqcCt+haHTaokqH3S+0QMAAAAAAICC5mlh6BPZUHL5RCq3VeINvYJubGimVtmR7B4z/XoS23qZkVOtzdRQ2te+nJ48EMoHUC/1UQykBbEGbcnZ1suMZPDOzwIJky1NIYfJlqajtYW2l0+gET0swzi+4Ol00BdB/Yzu1sYniCaMoB49RtAEeoIaW1U6LUzm8GIJky2Nb3C+NlTSOdrB47vLW/37B21LyzjHnFNJDSluN78w2dKkHXK9+lOJ3q9HbyoV8/GUy04Iky0NIn9hsqVB5CdMtjSI6IfJlgYRLky2NIhoh8mWBuGEyZamK4XJlgZRvGGypSnUCMMvrT6dhLDURzSU9qYeZv/ld9MvbqygIdyd7B4zWT1JQIThl1afTkIY6+Ppr9/rl2+nmsoh1nE8eSDv+9V4N2/yTjNEhJEsLVp+Qp600SNXHkvHHiviykdEVzraaMNKogmX9RSfe9JlE4hWbkhvSiCU11DzwYN0UMXvruV8DegfxBjnYHMNlatBXX27/fa3vw0MAAAAAAAASB/fg+pi96UqMtJQRQO4HkPEgF1z6OD8YcH9U5JaPUlO19OP515/Du0acCU94i6obx70pGt/54zT3H+Rs37VTWpYcua6uOvnRhh45yd0np59qLRhJTn1XKrweyrFUtS2gVY2NFDVALVzVTVQw8oNaVakQko82zJFhbzd5HrtijfNZ217aLv6mE3f//73PTFp0iQZAAAAAAAAkBm9UozvO3VhK8ys9Mo/vYLT7b/2RqLte+L3t8nuMTOsJ8nZeobSi/rrC+qXB5qe1/5OLNdauvEX9RS++jPz9UTLT+hEw6iyhqhqhs83GD0vownkrVBrqq3iJoLiEJCojZsP1jTLgu5EM9UY40OuWLZl2yNUHfvKx19hbzder+00SvsWSpbBmkoxJDu4otPktvjklz8DAAAAAABA5vRKMbPCLGeGzafmCStpQOyeMtk9ZpJ6khDysp5MNmwqpT5mhY2ZB03VdKVeV8CVv+X9qRc1UbVY3rCNQDNZT7T8hE7FtfxyJxAFlQvrsQP0ys2edO3SCbRStQjkGEVr449Ztz1CV4r0DdyU+spqqo09Ou3Co+85oTVdl6Ga3/O2XFuqDRuwiyqSPhKvP/LuKqztJtdLlDxrGcwi/RF3tPgEAAAAAADIvnxUDMbuKfV754B7zOB6knCyvp5GPUCs8lLvP2AlTWieb20o5MmDYRVUWjUgNi053tJrU1o/V7rr2a0j7NtD86ArtYI6cOAA7d+/n9Y2N9PMsWMjt+6FvPxRz9uwsJ7RwpWf3AqU/3Llp7keXWV7RhW2T+HCtukasJ2zB3lZ/LCNw0NeeSE/urZi2v56JZleecawntETdj2/3mMQtW17RvZHy08AgDxxKz4BAAAAAAAg+9yKMq4kMyvKignWMxje+QkAkAf6uz/xLToAAAAAAEB26RVlOr3lYDHAeiZfz4Ju+clP5HeVMNnSFHKYbGnyFSZbmmIIky1NMYTJliYq8Xd/93fywG0bZrKlQeQvTLY0iPyEyZYGEf0w2dIgwoXJlgYR7TDZ0iCcMNnSdKUw2dIgijdMtjSFHG6F2CeffJIwjOmfdXq6KATWM3g9XWj5CQBFrp1WXHUcHVe9WXUDpKh9BV111QpRkqCgYLsABMM+AoUin2WxkPeDrpQvmc4vm8tbyGUCsua4445Tn5zPZhQLfV3MddSHRZ2+LuY66sOC4J2fRaB9xVWeDX/VCnUotx3Y9X782R1PS+dM7ypyJ5M1+vxkaPNIGCaCl0n1j62TpCqzkqxHTvktLw/bXO3tX73CWV69nwrveuVYUP6zlNZpsyV9NenVi0HlyFtmVRqenrn9bP1S1L5iBlUNWkufzB+q+pjzL+B9pjPo6yQjz+vBZS2TbZ6wPt5yWdD0dcd2KXi+xxE/YfJQ5VPgOS8dsXmraWnLHXr5M2Q97heKwH1PRFDec/ow2yZsuiQKOh991hH7SmoKehsnY9t/wn75nMq+lO48OlOy40qx5Ys+/5D7YKTKepjjksZZt1yu02aqDjn9Tstnv7JqKZuxopkwzFg+znd9eL739WTLK1i3vRovzDkr92UniaB1tGxLufxh1k8f96pqqs7DORYtPyOOd44BKydQ8yefyOa/n3zSTBOaNyQedGxKJtNTzTVUXl5DzU9NphLZs502rCSaNYto5YYcFDyel7usawdR1QxtZ9eHcbjLVF5OVFUTv1HeXENVVC7+U6zr0Qlsy8s79SiitbH+a2nWDqLLnlLd7nKq4U9N7rSldejL3DyBVg7QTj4s9Drtcbablr65ZgeNip/JfMtRQpkVy9Gci7ImbaaaKhLhrfiM1D7TGfTtbu6XnW3o/Pi+ny7fclngzHXHdilYaR1HwuZhsnNeOmLzLqHJeTgfde5xPw1B+x5HpmU/Swo+Hy2wr6Qmits4gbn/aF8+Z01nzCNTyY4rxZYvKd6PRa6shz0uSZ1xbzCU5n/yFCU7HBVMPutlU5STHYt86gD0692ge9AQnHGCIy1+yysFbPtQ56zUy465TrZIWdA66sM43P0ipTqb+TQ/xXNsbH4BkQze+VkgYbKlSYwmqqnqoAfvn0Q9Yv160KQ79e4Uo209PdExniorx1PHE+upzZbGEiZbmoQYUkGzGpppr22YJ8bTTQ9up4WPtInPbfTIwu304E1i+axpE8NkS5PVKOtPPWPdQ+jOJzPYHimEyZbGEz0m0ZOvPkjbFz6SfDuHWKceI8ZT2fbdzrR8y5GlzIrluHNSj9h0koXJliYWbbtpe9l4GtHD7Vc4+0yyMNnSyGjSvhG9krel2Eeu1L5Bq26Kp217hK70pNWm44a5X/qNkzBfn7Tc78pqqo4t05X0SJuahm06Mr02H32ax1VTk95fn66+nlrEyqUnvZqO37TNYQOqqEEfJsKkD/NE0HImW3c9sF2c0IdZtguHyRyemEep7jNJjiNyndy0PG2Vt57+HdRU7TPPMOc8nzxqe+RKz7R4HtVNKr2+/Wwh03i3hXUZPem0/r75GHzcDzuPWDq1HiZnXpaw7ROp7HuxsK2f6DddlMOGKhoQ62dbJ0s6zzx52u4+mMV8lNFMNbHpGfu5CpM5PNw+Y8sL7CuFsK9wOpMzP0tkfHwMGQnj2sqPLZ0xHSP8y4obAeujwuQZ7rtNRaR1XDGiAPPF5B0vSejL6Tlnp3s808KWBzLPfbaP77KE2bfEfi67tbzWp6cdW5xhQfcGTVQdG0+EZ9nd6fP2iB+vE5fPnYZ2TNeXJzad4HwOXAcVJnN4WrG3mRoG9dbOC1qY17uddF9tsqWxRsL1edC2D3POys19pRsmW5qE6KQ6m2yGH7T8jLL2PbS9bAJdFu4rqFDa+auGCZdRScllNIFWUi6/GGpfsYiWzKqg2HeSjdPo3OOPp+NV6E2ee02eQ6XTamlz+wZaWTqHJvdSA/LJtrwy31T/WyLQqqmkD5U27qJW1ZnJOnHZaSztI7/58S1HycqsMf/jz51GjWpQWlp3xZZJivg+k2gz3VIhTiyvfkwffyyCv3nbXEvTSuud7o9fpQfJ/Ya0nVbM2EVzZP+Pqb50GtVaNqd3v/QbxzLfoOk3bqf+S1Xa+lKaFvv20DYdnRh+7kqaoIa/Kk6oFXoZjE23nmYtqY9/06jRy2U8/Z1i/YKmzesyjUrrnWEfv/oglakhabEuZ7J198J2YdnYLpZ1S3WfydJxZOidahlkPi3yPN4UfM7zz6MSMZ5exuqXzKKKVBr+eLZFwDLatrFfPibJr3DzqKD6Cne6qRxnbWXZ1s9gOxda16+EJi8V5bDsQXqV+9/pZHbiOtnTWeUsH0V49vOwwu4zlnXEvhKhfYWF3dYs6Nxi2X88bOPa9pHU5xFUViTf9UmBbZva8k721xR7viTg5fQ5Z6db1mOC8mC7ZfsELIuQfN9y9vM4/2ML8783EMtxVQVRitcxics3lO7k7RTPUHt+BOZz8DpknV42eV+ptB9wPde7EbivNuszkt0XJqvTyO99pV3k62w0eOdn0eCDqSqEKbyPxMtpZj1BHiFL6LIJOWiqr+0s5+6a470BcE/sKrxNnodSxawlVMEHaZ+DZaezLq+4SHlKnUT6L3K2R4EerK1SXSfr9sygHBnzz7TSqX3Pdirr73fUjcg+E2RzPS0xL2p69acycfPjrJPYdneqC3A+CTWKfUhtr4olRNv3qGX12y/9xrHNN2j6etqhFTTLrXC3TUdnXLSViAwu265dkMeG9aL+ZdvJnZ3v+ujzCpo2r4u49M/aoca2nMnWnWG7ZH+72NYtnX0mJoPjyOZbnPGOryAxaUPAOS8w/53x6vkQzeuqX6yGYeaN3zLG0mnb2C8fkwk1jzLyPZQHsW3vZOWb2c6Fqaxf4LZNImf5KOj7eVip7DOBsK8U9L7CUtnWgeeWoOt5IdSxVUhnHsn2vXTzXmfbpukeV3RRzxcTL2e65+xkyxuYB5btk2xZku5bhsBjS8C9Qbp5kkl++El2LZdtnrI5h3adq71H0u/6kMtiId5X+y5vmPvCoDqNPN9X6nzXUQg8lgWtX/6h5WeUyVZ77jcC6uCQSWWRPHA20rRzVUGf1kiNK0O+CzEsd2epn8VH5ZSmPbRSrNusOUnfbVIoSiY/JQ4I+reOBUie+PqLy4NwEtZJP/h5KmZ8ypGnzOZeSZ9Satyl3eZFcZ9JFb9PhbfHUqIZfNLSbzL9TlZB+2XgCc6QStpcspXLKMJ26Ryp7jPZOI7we6xk4w+ert56Iy7dc97Qilm0pH6zuBdfQrNSaspmCLGMHn75GHTcT3Ue+RRUTnSZrlMU8jFsXmBfsYvSvhK0rTM5t4QdN5V5hMmjsGU3X7pKvmSjrGdS/nTZ3reyfW+QSX4E5XNeccW0+sjcZQ+oHyio+2q/5Q257X3PWYV0Xxlim/gp5DobvPOzQMJkS5MYQ+j6B0k+whR/H4Q2fo8RTnNp7f1Om2umEU0Yob0rI56+jb9qePAV+uijj1S8QvKRGcv7ocww2dKI/+PDhtxBr0xYSedWb04c5gmtf49J9OQdQxL7W7vjYbKlST18prW5mq5awe+5UN1tTuVi/F0l5nibqVoc3Ko3u93phykxjdG/TZxMz51Gg+a4704xhrvhu0729MHlyFJmxXJUy+nbppfYz6QPS4ie/eW3mPH9o3D2mWRhsqXhd7DM5IsafX5ie8nyxPvLK85Npuzfow8NapxGNW5ZE/m+Qn7Wpm/ul37j2OYbZvoi2vjRiZkVNIS7bdPxbA+eZnw453fjoD7W8qo6EvrHw+gfNG1jWEdrs3z9QmxcESZ9mDe8w1VH8nXXP2O7hN4uHCbPcNu6pbzPJDmO8OfGZmrlz218ISsHJKZxzw1+afzOeYH5L4LXcUkFVWx/kK4fovp55u3Xz9KdbBnjHf75mOy4n8o8tM8mN60nbNs7Wfk25h0L3/Uz04uOEOsku23lJIf52LG5jpa46bQw6cNS2mcS1hH7CnPTqY5O31dinzVuek+ksq19j49+09f6hx03nXkkyyPfvI+HyTvc2091pH9c0fsXaL6Y4tO1hZZGLqeWJ55zdoZlPWQeqI4kyyI+hNi3PN3G9PRjC3/2vTcwl8MzD/HB73hoXb7YyAH5EZDPAevgLI8TJn1YYvilMfrL9RhEfeRvMmjDzOtdUS7t96DZu392w2RL44Q23FjewG2vj+dzzgoePzthsqUR/8eHdUqdja1fZuEHLT8jrmTSk7JAnnfCCXQCx3lORY1T0V5Ck+6fQCvPU8NEVFA9PTlJVcO3P0pjRfpGcbA8b+wtVCv2twkj9Cr6EhrBza035ub7Bl72erFEJ4x91Pk2gZfDXQ8Ot38ynvUIOU422JZ3yGgaNO28eL/zVtKE+yep7VEA9GXmZXvlI7pziBrGMl6ndtqYpBzJ7T5IX45mGu2WyWwrcU7sehGO8j6TaAjdWT+IprnLy9ur5wDaUaG6xbJy5bazhCKtuKDVhzXL/l7e/dJvHMt8g6avlavzVk6gV2KFzjYdHU8zvj3OmzaI6j0FNhNB0zaWa9EOeSOQXcnW3QvbRQ3LeLtY1i2NfSbwOFIyiebMvJcquP8/NtMg20JyGvc46JfGV7L8H0KjZ4p7pdhxLU2pLqNvPqryazvuZ5QPYVi2t7WfwXYu9Fu/Ev7STKW/ZYv/OtnS2cpJtvNRXxduPfRkfHrhpLDPmOvIvbCvJCrIfYWlsK1l3vqcW5LyGTeh/KQ4jzB5FJD3mbHknRoSXsTzJeF+zMgT45ydWVlPMQ+CliWtfYvnbzu2JLsPMpaD88tJ5CyH7XiYYX745rPvOmTIOH+OfVTtCXp/eQ96p1iCRHJ53evdQr+vFuLLm+l9YfJ76HzxbBPuYbtGkimTyFedjaZbR1DVqMKtNbNVaZnKtLjJdlfxwQcf0P79+2ltczPNHDs2cuteyMsf9bwNC+tp1/7oWDqveQ59lI0Teicqmu3JJ7p/JLo/5Rvuwhb57VOk24V1lWNhV4ftnD3Iy+KHbRwe8soL+ZFDW26hE+pGp3mPsoVuOaGORn9kr0TMlq6y/bGexUVfz6/3GERt256R/dHyEwCKWsmk++nBHRWxVigAAAAAAACdbcstWos5bo2fcsVnOz06lsevoB0PVua04hOg2ODX3gGgyJXQpCc/ilzLz6JRMomeLMLWhZGH7QIAAADQqYbc6b7PkSOdVpvqvkaMH3stFwCEUtAtP/WXlhZ7mGxpCjlMtjT5CpMtTTGEyZamGMJkS1MMYbKlQeQvTLY0iPyEyZYGEf0w2dIgwoXJlgYR7TDZ0iCcMNnSdKUw2dIgijdMtjTFECZbmmIIky1NMYQftPwEAMiGLbfSiSfeSni4HgAAAAAAAKBwdO13frY/SuNOPJFO1OPWLU7/cdovUMlKjROJBxUUtfzj3F9Rk9rp0XFiPfTlF7bcaqyjxGnHkWd0gdN6p9k1tT86Lp5nJ3rzyRlm5J2lPMWz2lLWxDba4plHvL87Wet8Coy9bBWIztxHhtxBH9YRjS64A0UBMo+xUDiwbQAAAAAgZeoey72f0sK9b/K9b0y4V1YNSnzuoQvqOjVhGe337r739aquKRYFej8tl43zPsLri5afZQ/Qzg8/pA/duMN48wZvnNFEdWKYOagglJURTX8o3tpsy0M0ncrEf3Fc8EZTXWwd60SXcwAqoRHjiVZt1EvkFqq/t4zGj+ja7xDhPBu4any8bOwcT7ti+dROG1cRzZxp5p2gl6edD9COe7SDs1nWVk+iIZNWx7tF1Ilplo0fod7DFzCfAuFftgpIZ+4jQ66nB3bcYz0BAAAAAAAAFKcSmrRa3deK++Ay7d539aSS5PeNWvqdD+yINyix3EMXXE2Fpw5gPK0aaDac87mv54pEVdfkrF8dzdyxp7Aqd0sm0Wp3e7p5H9H17fLv/BRz8e/ftkJsnB20dMft9B1LmmyGyZbGFkTjaPbSHXTPijbR3UYr7hHLO3scT0Gl2Uy10wfS07d/JzbOd368lGh6LW0Wn3sMF2lXbaA2Naxjcx3dWzaOhvdwxw8XJluafIXJlsYbnGdES+/9EfVw+/X4Ed3+ox7O57YNtErk+49/bOSdiHi+i2htpsaBvWPT8AyzRNsKcULoeJpWhZiPLUy2NNmN4LLlTZu9MNnS6NG5+0gPcpLzvGzDw4fJlqaggo+X41aofBL5PG4crWhTwzbfEv92b9wtdMsN06mxcToN5O5bNsfHd9OceEtOy1A2wmRLUzCBbRP52HyLm//GduFtJltZqO3it608abVpRDhMtjSdHnr+q33Os+20vLdu0zyFyZYmaoF9xhsmW5q8hF/+5zFMtjSdFgWQPyZbmsiEZb+OHSvc6yQzzYnaNZNnmLM97Mdyvtay9Y9emGxp/EKk1rqT3zfq6fn+q2zHbrlNvNPJTZhsaYLCs4w9fkSrdiylHfe4194iguoPys6hklj3d+j2VVodRJbDZEvjF/o6Fvr6+kHLz8YZNOikk+gkFeNj3z6sppmDVtO4Hauo0H9Ireek2TRwxkO0pX0jrR44myb1VANY+x7aWdaf9F70/7d3N+BylfWh6P+77SO3z7ngc3tAPaSQAPf68JHrqdyLpQqSPKbHQK410FCPHCVWQkUbQ6tJEeGItlAag1RjqliSlkSEIkgiGIg1noQvi1rDORogRYFsMYiCH5BWCoq5a61Zs/fM7FmzZ/aenT2z5vd78mbN+pz1vu9a76z573etOfzIODZ/GYfPTQ7LTVENyN+1ZXUse8+A/wJwVmYLo6jz63e3bYpYODcObyi7TO3xdNoDseYdNd2FC4+1xHfXx/lLkw+Emu7FLd+nF4x3bPWQ/XmOHH7ksbH1oeF8jLSn7EXpuXD/3ti7N0kbL4vLPrYm5s1LPiTT8eyYT5bJ2tvKMveveSBO67VbPkpJ3fSLky/L62jvbbFs9ZWjvcu3PhAv/1g6/bI4eby6Glk23caWZGm667ux/vyH4j1ZPe2N245dGp9KCrmu7mLeyHVBYZ3SFc6ZfuDzpTXlMyXqzuvTYsv89PX9sab2u9bIMkm67dhYen7NnXx1bUhBW3PXp2Lpsbfl09Nt91hPvunQ4ffG9Hvw1mOPrHzfavUduleledv6UFS/ERZ+r8/G8/z18/ndJ/kd7Gd+pqpf8vK0sRrp3JrU15qGxq5nnRzzl62O09IPyNpgW1sOj7kLIzZlR+RdsWX1spjf6SYGynejci6nx0lt2eXqjqf3xEPHnT56wV10rGVfmJbGsbdVPkQrxnkfOuQcmTZ3bYnVLf6YkGn4g8PhSYHPe8CF4pRTN/3jrovyi/7TYnU+KVNbf+PV1ci8mfHyeQ/EIyqxu9I/rm1NPmfyL2enJRX1wEghJ5/zp58WcVvNH9SL6pTucM70Pp8vrSmfqVF3Xs+Ll9dF43I15R4nz49lNUGdunmpZm3NzJfHvNWnxYGnp3GEw2PxZQPesahdNUHO4x56T/5H+EThd+h+0ep7fXJ8bKzk6/6XX1k5lvr+jxy9m189P4ukDdviy7K/3B/XBwfgye9YE/OWvWdsL9WGKHwm/TDNX6bSD9PkiIzvpl+El82vCcANqKzMCnpaZl9utsbS4/KGeenW2JqWXT67Xvqhmr9s4a6LjotNC++vf6ZsR+8zTdo4tnqJcwToS99dH1ncLLvovz/WtPG5wjQp+IL23fXnZ72ARj7n1enUUr7A/lDU1hy+ODam0z4WcX4a3MmCoAOune+NtZ+hdV+M+1D2x4u8p2ub3+sPX7wxyXuf3mnQJ/kd7Gd+5u+TjBROP+nSpCF74LSse3XdMl1OjZotMyblyyYj2bMWbq4+QyOfnE3fd1K8I7tNYvRZI3d+amnEmneMPsf0sEp35POvXB3LXj/6HI702RwXJQfsRXdWx4tTo2bLdJ7af/9WqVGzZepTWmZR6fVbnZZ8uF2UHANZF+4198czzzyTp+T4yLpyJ8vk209WyNdJT/xj44j02ZD5rJF51XTnRXHaA2viY9XnfOap5fvULFebGjVbprupjWNrClKjZsuMpHyZZGS/nSPffeSBmPfymTXLTCw1arZMT6V0J5OLmt3p6+zYz/Y69p30+liW/TGhYdlUdfywI/I/OFTGK7e6jD4vtxdTo2bL9ExKd1Dd9G9KM5FeUKava+svHaSqy7Wqq3zRyrL563Qb2Xh/pkbNltmvKSv/pfGp6udBct2wPn2dfM4ft2lh3F/znLPCOq3O38+pUbNl+iqlmXDO1KVGzZbZ76lHP18aNVtmv6QeKZ9GzZbpm5TnIRlJ/+UaXuevKssk5b7+yli97PWV7wT5rOq8bLxZW5O0+9l3g/S7x/1rKj+yWl2nz1KjZss0TfnyyUg+bZzvW/nio8vnKZ88ZnqXU6NmyxSmfJ1kpDKeBsWPWxrH/mnlWZbpuVv4vT45VuriTNUgYnW8y6lRs2Wapnz5ZKQv8ltEz89xHRZn37w5jl16XJyx4bF8Wn857OybY3MsiIMOOihLC5Kxm88+LJ+bOizrjrx167J4vS5tmazM0l6/eZkddNxD8fqzI+/CPbbsNm3Lj420u/7IOulzei4d7SVYOy9NZ2yIDV9cPXb6QWfE+eO9T48Y/9jqD907R+6K9HO8vu4GRHKB96fLVseCtAzPfyiOHelpc3JcuvnYWHpcfnwnx/1jWTA5P+4vTv/Wlyxz/8LYlC9z3NJjY/OlGqOuUTf9La2/6udRXf01UlfTKy3/NfHAgkr5H5R8EXgoHosNf93wOZ+eV23XKRPinOkTyr815TNtatrsyh+vCsq9qK2Z9fK6z4IsKJTPGmQT/t7Y5Dt0z0VlavcxiwE8E5XD5rHW8YOTX5/FmUbylq6b/uhyvmRPeGxDnJEcx1vTPFbLvk/zO7SvVWh0mqVdngfFz372s/jJT34SX/yXf4nz3/jGvst7L+9/v5dtu+SzB9x1cRz0xdfHM124OB2U+uxX6qd3qZvBoJ67R1mWnzpun7KqN3DlkQZ6zo/42M0ClqlBqX/5LJfafP7nw46L4W/dk03X8xOgG9LA54LwV3kAAADoIYP9zM8eSo2aLdPLqVGzZaYrNWq2TBlSo2bLlCE1arbMtKST/iKefvovuva800bNlpGmLzVqtow0PalRs2Wk/k+Nmi0jtZcaNVtG6u/UqNkyUiU1arbMIKVGzZYpVfrNt8bnPvfW+M1m8wYwNWq2TBlSo2bLlCE1arZMGVIRPT8BAAAAgFLq6Wd+pr8O9eyzz+Zj5Vf7/IV+zHsv73+/l2275LNcBiWf/Ur99C51MxjUc/coy/JTx+1TVvWUx2AblPqXz3Kp5rP2mZ9tBT/T3prduvW9k23t2rUrfzU4qgdiv+a9l/e/38u2XfJZLoOSz36lfnqXuhkM6rl7lGX5qeP2Kat6ymOwDUr9y2e5pPnsOPg5HT72+c/nrwAAAAAA2tMXPT/vuOOOmLPlpfnY4Ng+/wd9ne9e3v9+L9t2DVI+TznllHysvAa1LewXg3K+9SN1MxjUc/coy/JTx+1TVvWUx2AblPqXz3JJ87nvwBm93/Nz6EJd6oHW9l1+dP6qvLSFAAAA0JltZ/7aSPCzZ3/tPY3SDqJ+z3cv7/+gHFPyWS6Dks9+pX56l7oZDOq5e5Rl+anj9imrespjsA1K/ctnuTTmU89PoG/p+QkAAAA00vOzh/V7vnt5/wf1LxyTdujBsfu9B8f8fLRjk12/gPqkF6if3qVuBoN67h5lWX7quH3Kqp7yGGyDUv/yWS6N+Rysnp9pEObdB8fMfDTz1FNx6keeii3Hz4h9Zx6YTdp+466YuyN7GdHp9F7x9MERn0xS1WmPRrziueLp02T52UfHqkPyOsimHBBr33tEnJPu4oOPx9CGZ7Kprcv7oNj23hfFypFtTFLRcXJ9xFXp9Nr9Spd9c8R5H9kbi6r73WD4wb0RxxxYvL18UsTzse7jj8SSx/PRRFY+x+Qjte87Yc3KKpl2+aExJx9r3I/584+Mq2JPzNqSHCcTOB9G1v/mgXXlOnzHo5VtTkLTnp/D6+LUWUtq8jc/1u6+Pc5J33jMvMT8tbH79nOy/Rped2rMWlKdm68XBetcldR73fTlsW3fqpFybLqtuoOgPT3X83NCbWKT465b26FeJ+XX0NaNnpP1bcL401MFbTedcX6VmPLtGWOu88Zef9EhbdcUSPJV+JnL1GpV9q53OlNfloXtbafnfss2ITeZdTsmn3V6KJ+D3fMzDTpduCsLKGQp+6BMGrG5ByQVl4x//Kk4Ym61l1rR9KTSz4xYka6fTj9zRizPpk9e1/L99AERZ+2KeF+akqPxthnJtBbTu6ST/U8De0tjbwzn46nlZx8R8+5/tFI3tQHGgvJOA2v76k7AYh2VbdPjJJ3+fAwfc3CsPTRbqsZzseQj+bLJPg7XrD9ra/JhWbi9muk3PhfnvHm0h2Sat1WRfKjm81fEobF7flJ/4yjKZ+uy2lsp3yzVN2CzXxKx9ZvpB37B+dCiflIj67/sgHg0aZAq7/F4PHrKjCbl2L6W9ZkGJ/fti/RvO/u2zY4l560bPc5q56WpNvB506LRebsXxa6t+VoF69RO3712Z8xdsT1bvOW2OtS1NqErOm0ri467bm1n+vVU/XTaVhadk8cnFxB10w+ubKdoeqJp2z3NeuvcaYfzayL6oZ77pXz775yZhBbXX2U2NXVczrZr2s+HFp+502Gg2oc+u97ZHyZX/8XfMys6PfeL24RRE1tXPtvRv/lsK/h5ySWX5K8mr91t7def3j/0wJgXz8RNacU9vje2xkGxKP0CWDS91uPPx6P5y27oWr4P35Ok/HU8F3Fk/rJoepe0u//pxcrSHz5aCQyOOCgWHLM31jT+VTP5gj7zwb1xRfo6rYenDoij83rYsuWR7EBvJ6zUnbJ9JtbcEXHOvIPy8S7asTe2H3xAzM5GDooLTnkuVtR8qF6x9amINi58ivLZSVmNSuvkudiVngNF50OL+qlbf8eemr/EPBcPJ9mZjLbrc86CWL5l1zjn6fZYsyRi7VV5UDM185xY1UFXzZnzFsX8nQ8n5Tv5bdXqWpvQDRNoK5sed93aTg/oqfrptK0sOidrpx/6ojjiqediZ/q6aHp2njdpu6dZT9VNO5xfE9IP9dwv5dt350y31F1/lduU1HFJ265pPx8KP3Onx0C1D312vbM/TGn9d3rut2gTRkxwXfnsgh7O5+D1/Dz44Lj98qMjvV02Te30pBvrmZh7Y8SqbBtJ6d64p/JlswumJN9Pp92An4l4cWV0RNH0SWhn/9PA58ht1LXSD5c4MC/XJJ2dBxifeC6GjzkwD/o9F7uefFEc9bJspCMdlW2L42Tnlj2x7pBDY9vx+YR2tHHczZ9/cMypBi6aXeS0GWif2DE0Wu51+3b8gaP7VKRV/RStX9tQTVC7+RxetzKuWL5gtFfAliUxa2gohvJ06rrkknn44dg5f1HMK4pPNlunwfDWm2LL7KNi5njb6tCUtAl0TU/Vz2TayjHnZHpbS9ImZI/1qL2VsMn0orZ7mjl3BoN67p5BLcu666+Sc760rzfKquizeP8bvGOnf6539ofJ1X/B98weJJ/t6N98TkvPz2oAtNVwyqLRDbcfT+zZKaO3vZ96x/Mxp2nX3Inpfr6TRvmTSXp9Yze7oumTM/7+HxCLjntRzDzliMqHRvrMpTQwWP1BnJH6eTTWHZLfXv74U7HmwdGTbNUxz8fDT6QLd6ajsm15nDwXS7bt7azei7ZXExS9/SVPdeX2ic6PoWdi7si+1dz6mlg++8DYvnOcfWpRP83XT86fdx8UW6+f3EVcy3zWBCtn7bog9q2quSGq4Rb229vpkVm0Tqv36ZLutwl0U0/Vz4TbymbnZN4upM8mvrz2URYF05u13dPMuTMY1HP3DFRZTsH1Vz9wvrSvN8qq6LN4/xu8Y6d/rnf2h4nXf/H3zF4kn+Pp73xOS8/PajC11bCn/7pU05ttS9oLMPniOKZr7gR1N98HRfzVwRHvfKShd2fR9Mkbf/9rno2ZpvRWlfRDZMxfM+t7LV2xobpO8kHzVH4bdYe6WrY7nkrq/eC44BX5+ERVP0Bv3BtxyItGg6lpL8/GW7CyvzaOb3L5rL0d/YA4+pD2gifN66fZ+ulfUQ+Oh7vwwwIt81kNVm5LLlWyW9HHMfOomL3lpuj4sZy1QdFq4HOi2yrQ3TaBbuu1+um8rRznnExvIal7lEWuaHqnPU6nkHNnMKjn7hmosiy6/io550v7eqqsCj9z95+BPXb64Hpnf+hO/U/+sWdTTT470X/59MzPVO3zAdp5nkDdrYUHxFFNfuF7orqW7/RX3ZsFOIumd8mk9r+2vAsCb/Pnz4hznpzYrUndPaby3p+n1P5a6CTs2BOn3n9Q3D5y+8QzsfKOA2JVze0Uy+cl9XbHU+PmveN8Hj9j9Bb+9Dg/OA+YNN4GW3Q+1Kirn8Zl0h9j6VLgM9VWPuesit2LbopZ+Q8RFZsTS9dG/Q8jDa+LFU1ubx9fN7c1gfqcSp22lUW6tZ0e0FP1U6OttrLgnEzXHfkrbloPeZtQNL2u3jr4o8lU69W6KeT8mpC+q+ceNpBlOeb6q9ympI5L2nZN9/lQ+Jk7TQapfei36539YcL1X/Q9Mym/te/Nb5vu9NwvbBPSP+gfXXm/jtetkM9x9Hk+h/alXZbGUdtbc7La3dYdd9zR/UY2/aKX3madj2aqvQ6LfiK/YHr63MrbT3lR9rrw5/gnII1OdyXf3zwy4rbK/o04LX1i5Izm01/RnQc3d7z/aZ3UPUtltI6G73h05PbwkfJu6CVaWw+pVnXR9r4VHSfpbQ8Nz9xJf7F+1SH1+9QqTyPa3F42fkxlXjz4eFu3ZRXls7CsGvavOr3ps1nHOx9q6qdx/cb3T43Wcdq4HRibL0yfn1v0ul6az1NOOSUfqzG8Lk49Lynb6i+yJ7avGIq5O9fG7quS8p61ZLSuUmnvzXzZbLmRN1oe2/atijnp9pqtk26r4X1qNd1W9np7rBjaHAuy8aLXo6akLZyMSbSVqZF53drONOtam90lzc7Fuum5tPxWvqTgnPzhwSN1EPF8rKsGR2vqpm56qqDtnk69VjdtcX51rB/quV/Kty/PmYlovE5LNL2eK6Epq+MStl3Tfj7U5HnMZ+40GJj2IdWq7Hvwemd/mHD9F3zPHHPnUYfnfvPp6TYPzX6pPxvvdJsJ+RxHH+Zz34EzYvhb92TjbQU/p0N62x4wfdIvAgt21jcgnZjs+u1In9VVdtpCAACgNNKA1ey95X/esnxOu21n/tpI8HPwfu29x3Ut3391dOepC3q53gblmOpOPg+KBcfsjc0TDlxOdv3xqU96gfrpXepmMKjn7lGW5aeO26es6imPwdbt+p//kgPG/1HdaSCfE9Mv+dTzE+hben4CAAAAjfT87GH9nu9e3v9BOabks1wGJZ/9Sv30LnUzGNRz9yjL8lPH7VNW9ZTHYBuU+pfPcmnMp56fQN/S8xMAAABoVNvzM9Lg53g++MEP5q8mr91tbd++PUvV14aGhoaGhoaGhoaGhoaGhoaGhoaG4w23fePb+6655pos9WzPTwAAAACATm3f8Z3ef+bnHXfckb8aLP2e717e/0E5puSzXAYln/1K/fQudTMY1HP3KMvyU8ftU1b1lMdgG5T6l89yacynnp8AAAAAQGno+dnD+j3fvbz/g/oXjrKST3qB+uld6mYwqOfuUZblp47bp6zqKY/BNij1L5/l0phPPT+B1obXxannRVx1+zkxM5/UkcmuDwAAANCBwe35mQZhhoZiqDadui6G03nbV4xMW7E9W7qi0+mT1M18rxiKZP8qKcnmGCtOTYokf90tne7/9mQnq3UwvO7UkTIdSdXCbVne25O85PXYQtv7VnScVKfX7kA6LXvv4Vh3asM6eTp1xYrW2xtJp8a6hkxk5VOd3+aB1jSfDe91auMbZZqX4/DWmyIWzasELidwPoys39Y+tK+wPluV65h5SarJc/0xmK9XtM6Y6SuSEhzVdFsT0M02oSsm1CY2Oba6tZ1p1jf1k2kov8JzMlmu6fRRtW134/KTOd67qefqph3Or471Tz33fvn25TkzEa2uE0puyuq4hG3X9J8PSb7yPKdpstfNkzUw7UOmVdnXfOcbezCW1sTrv74sC9vbTs/9lm1CbgLrTjifhdfUDfo9n+22Sz2az7aCn5dcckn+avLa3dYpp5ySv+qy+Wtj9759kXZ4zVLWGy1pxFbujLW7k/Hda2PnyuoHaNH0pNLnRmxL10+nz60PekxG1/Kd7tC2SPJYSbOXVCalknMzOTgirsjHu6mT/U+/PK+M5TE/H595zu2j9ZKkbcuT6jr6iGROUT2keUkDTHPbyktHZdv0OEmnz4/5V6xs0mjPjHNuz5dN9nF+zfq3Lz26xfZqpm+bHUvOq8/b3KQSq+tsS8baufBpms9Hd8Xsbfn77NuWHA/n1eWhVTkmq8aieeneFtRD2ti3OB9G1h9nHzrVsj5blGtRXaRlMOumRaPzdi+KXVvztdqov91rd8bcvMVtua0Oda1N6IpO28pKWYw9trq1nenXU/XT4lxsWn5F5+T2zelGaqavqTunG9vuiuWV983S7XFOdoJMr946d9rh/JqIfqjnfinf/jtnJqHVdUKJTU0dl7PtmvbzYZzP4v1toNqHFmW/fcWsuGnR7sq8VXPyqeU3ufof7xqx03O/uE0YNbF1J5zPdr7nFl6n91E+22qXOt2n/ZdPz/xMDW+Nm2JRZPGdmfOSVzdFFqcoml5r5lExO3/ZDV3Ld9IWj7THyT7vTL6lpmHE1MxzIjk4kuu+fLyb2t3/9GJl5dG7K4HBZpLGYeUVy+OCtHVsUQ9ZwDQ50NvJS3fKdlFcsDZiyZopuPyYsyCWb9kVj2Yj22PNktmxreZDdc7S7I3HvfBpms85q0aPh+RIOLqhwIrLcXtsvmJ2HJWWfVE9JI39luUL0kOuMn3+znh45DypWX+cfehU2/VZV65F0vKOWHtVHtRMJSfKqg4iODPnLYr5Ox9OTrfJb6tW19qEbphAW9n02OrWdnpAT9VPi3OxafkVnZO104cfTj4/jh75/Bi37e4hPVU37XB+TUg/1HO/lG/fnTPd0tZ1QjlMSR2XtO2a9vOhxWfxdBio9qGw7NPvNfn30wEzpfXf6bnfok0YMcF1J5zPdr7nFl2n92s+i9qlTvdpP+Zz8Hp+blkSs/JusWma2C0Ec2LVtoi52TbS8P2qykHcBd3O94r0tvfseYvJ8ZBPm0rt7H/65fm8uCpub/HBsT2LHi3tWrmmOirbFsfJEedcFWt3zi3ukt1MG8fd8LqVcUW1QWzWmLQZaB83n7WNxHi2bx7dpyJHHB3zr9icXA6kZsZRs7fEruo3iKL1O9mHAu3WZ125pprVRVbeLfannfrbelNsmX1UzBxvWx3qdptAd/VU/bQ6F8cz5pzMb2upeV5v67b7ivwzcaKfq93n3BkM6rl7BrUsx1wnlJjzpX29UVZjP4uny+AdO03KPr3Gr7neGaTb3idX/713jVikK8d50ffcyVynd9nk8tk77dJ4GvM5LT0/q9trNZyyvy403L7aKgBXbPS2991r58cVTbvmTky3870qve39qojzhtK9nnrj7/9wbL1pS2xZMqvyoTFrSWxJA0u1z+qp7fXZRR2VbcvjZGacc8Hyzuq9aHs1QbVZuy7oyu0TrfOZHLuzkua4tldiC9s3XxHLF4yzTzPPiQuWj36ozb1ifmRPK0g0X7+zfSjSMp+tynUibcB+rL9G3W4T6K6eqp8W52Jrzc7JOcnnR3K8Z58f6W05rdrufNksFdzqMw2cO4NBPXfPQJXlfvj87kXOl/b1Rlk1fhZPn8E7dgrKfuQ7we5Yu7PZo9DKaeL135vXiEUmf5y3+J474ev07ptcPnunXRpPYz6npedndXuthj3916Wa3mwz016ADd1rJ2NK8p2ceYvmR82tyFNn/P2veTZmmtJbVdIPkZq/GkxFr89UV8t2ztKk3pfEmq35+ERVP0DTB5xmt0zn0l6ejbdgZX9tHF9xPpPGeGhlHL273efxDcfDO9trlOesqtZpciEwP7/Nven6ne5DsZb1WVSuRbLynsB5XBsUrX5xmui2CkxJm0DX9Fr9ND8XWxnnnExvIcluyxm/7a6Y/CMtusW5MxjUc/cMVFl2ep1QEs6X9vVUWY18Fufj02Bgj53Csp/ennv7W3fqv3euEYtMLp/jf8/t/Dp9anSlPnugXRpPYz498zNV+3yAoucG1E6v67L8aOzakr3oim7le3hdjP5VJRnelOzj/ji5Jr3/zXp9FtVDh7p7TOW9P5csia5U/5xVsXvRTTFr5PaJObG05gd0Uu0GhZvmM33AcqdBx8aybqMehtedF0tm57eONS4zkX1ooa36HFOuRdLyjvofPEj2d8WE/jTZzW11+7idpE7byiLd2k4P6Kn6qVF3LhYpOCeH162o+fxI6mHLOBdn21eMPgakneX3k16tm0LOrwnpu3ruYQNZlm1fJ5TDlNRxSduu6T4fOv4snmKD1D4Uln3tsZhc5bfbSaQMJlz/hdeIw9mv5me3wXd67he2CWnwMf/F747XrZhwPgu/59bks0bddXof5bO4XeqT+tw3SHav3Tc/yXKa7ZE0f+2+3em8bctHpi3fli1dUTB999r5zZfvFek9+UntVtPaLJMVSTHUzZvW/U/rpFoHyf9r58e++bU7W9VGPXStLoqOk7p9rdi2PJ+Xj2cal5vE9rLx6jqTyFxjOaWptpyblWM6bUxdjFcPNfveuH7rfdi2b3ksTw/bFq/b1Kpci+qidrmRefn7dlB/tZpuK9PFvE6HSbSVdfO6tR3qNDsXU83Kr/CcrKmDiPl1nx8jao//hnNE3UyC86uUlG+PafL53Xj9RYe0Xd1Xk+fCz2KmRquyr7nmGfM9ibEKrxHT7z01Zdvhud98errNmvFOtzkJjW1RmirHR30+R5Zr/Lzpk3zWbrP+3Ojd+tz2jW/vu+aaa7I0lE5IFmwp7a1ZvSV9strdVhqlHcTu9f2e717e/0E5prqVz+0rhmLzgn01v1zXmcmuPx71SS9QP71L3QwG9dw9yrL81HH7lFU95THYul7/21fE0OYFPfe8ZfmcoB7O574DZ8Twt+7JxtsKftJ/hobyFx1wJDAq7Wa+ORbsW9X6ttlCk10fAACAshled2qsOer2Kesk0yvkc/pt3/GdkeCnZ372mG7le/Sm9vZTN/RyvQ3KMdWdfKa/4jaZwOVk1x+f+qQXqJ/epW4Gg3ruHmVZfuq4fcqqnvIYbN2u/5nn9GagTD4npl/yqecnAAAAAFAaen4CAAAAAKXTGFNsK/jZrR87SrW7rfQBrNWdNTQ0NDQ0NDQ0NDQ0NDQ0NDQ0NDQcb9j4o049+2vvAAAAAACdqr3tvWef+ZnuJAAAAABApzoKfk5Hz880+Pn0s7+ajwEAAAAAtPbiX38hG/ZFz0/BTwAAAACgXY3Bz579tXcAAAAAgMnQ8xMAAACAzjxxQ3xo0YVx36suj6uvfFMckk+OHZfHwmVX5yMRp69+JBYfn4/UarXcROdNpYb3rXrlBXfFJW+YkY9VPHnr2+LclXfmY1OQtyksn8Z9j7Oui03vOjEfqTHRfdgPedTzEwAAAIAJujfWn3RkLEwDn/mUEWlANA1KpQHRu++KP35VxMZlb4svPZHPr2q13ETnTbXjL4xNdz+Sp8p7p2bNqA98poG5LHiYBg2nIm9TWT51+/5IXHpWMu26s+JDt+6pzK+a6D5MUx7bCn5268eOUt3cFgAAAAD704mxOA0Arj43Hx/15NdvzwKir5x7UhwSM+K35r42GbszvvL1+uBZq+UmOm+/2rEh/uZryfBVl8dpDb0Wd957dTY8/cS0t+ToPj7++MTzXWu/lM93huPJZPDSw9L1xwZ4J7oP05VHPT8BAAAAoC174kvX5gHOt9Tc7p+rBgw33ntvNqzavWc/B2gn4vizs56U8bUL49yTjsx6gaa39Te9Lb2P6PkJAAAAAO1o0eszdcgbLqsEEK87KxbmAcS+8cTd8ZUsb+fG6WkeEvetPDnW76i87lf7vednqrq98YYAAAAA0Bta9/qsmBG/e2X12aD5czPjtfHqExqeDdqDdt5ceY7r6W+5MBanecgfbdDYi7Xf7Peen6nq9sYbAgAAANAfDjnh1HhlMrxv293xZOyJ/7kt7fWYB/7SH6pJfyjpPTdEtFiu1TZabj/9BfB8+09Wf5Qpe53I51V/uGfnJ5J5J7X+kZyminp91uQte7+q5H0vvi4ZnnVe/O7LWpdPu3mbaNm1o/GW/Sf3/Es2fOVhh+3X+ut2Hof2JfLXhdKemPs7ILl9x3fi6Wd/NR8DAAAAYPqlgcWzYmM+VnX66kcqz4ZMg1jpr3HnGqePu1xqIvOq09NfAb9yZtyW7mP2+k1xSD4vfX7lJW+YkQU/L77utfHHN12TBSXbM5rvuv1J5duvTG8on/SX09+V/vhRbtJ5G81PVVvbaFOlbPKRVHX/8+2O2adc2/tQNK86vQt5fPGvv5ANh791TzZsK/g5HQQ/AQAAAMohC6p9Jw9s5dPKosx5q+qnPDYGP6flmZ8AAAAADIp74xvXRYvnZPazMuetqr/zqOcnAAAAAFAKen4CAAAAAAOhp3t+AgAAAAB0qqMfPJqOX3sHAAAAAOhU2qmy53/tHQAAAACgU7XBT8/8BAAAAABKSc9PAAAAAKA09PwEAAAAAEqvqz0//UI7AAAAADDdpuTX3tPg59PP/mo+BgAAAACw/7z411/IhlPya++CnwAAAADAdGkMfnrmJwAAAABQSm0FP9u55R0ouSduiA+ddGQsfM8N8WQ+qdbOTyTz0vmfuDefUu/JW99WmZ+n9TvyGakdl09sXq1ubIP9r3pc1aaCYyjT6jhsNq+T7TuGpl9R/XZY/q3ao/HaKgAAoFz0/ATGcW+sTwMFiy6M+/IpY+y4PC6+Ln/dTDL/3JV3Rpx1XWy6+67441dFbFz2tvjSE8m8NNix7OqIV10eV3cyr1Y3tsH0yY6LR0aOjbjurCbBrVbH4TjHaDvbdwxNsxZ12Gn5t2qPxmurAACA0tHzExjHibE4DRytPjcfb5AHJk4/q2B+Yue9V2fD0088Mfl/RvzW3Ncmwzvj8ccjnvz67Vmw45VzT4pDauZ95et7Ws6r1Y1tME1e9qa45F3pcVHrtXHoofnLEa2Owxbz2ty+Y2i6FddhR+Xfqj1qo60CAADKR89PYBL2xJc+fGHcd9Z1sbgxvlTjpYelwYqIjffW32a6e4/gERWVW5FPjr/52rlx6d3XxO++LJ/RJVO9fXpBq/aovbYKAAAoHz0/gQl78taLKsGkMT3r6h3yhstGbjdOn7WX3QIPNWa/K70t/ZG49Kyr4+LkGOn2MzWnevtMv1btUbttFQAAUD5tBT+rqj1Ai4bAINkT/3NbGsSsBJMWps/kS6UBzjE/RjMjfvfKSvCpEoBKp702Xn3CjGwuVFV7CU9Vr+Cp3j7TpVV7dHnc1nZbBQAAlE1Hwc9qD9CiITBI6gOaI8/qS39c5so3xSHp8/XSQEOTX23OfnDkrPOyW48POeHUeGUyet+2u5PlqgGMSmC01bx0O9kvNifbj4lug2n35K1viw/dWg1EVusnYtaMpH6KjqEOtNy+Y6gvtNcO3B2/VdgeXRiLW7VVlTEAAKCkOgp+AoMo/xXmam+pr10Y5ybj4942/Pgj2Y+UnP6WNLiQb6O6nTToUL39NP1BmjQYkW03fSZjss7q/JmMrebV6sY2mDb3rTy5cmyM1M8jsfj4ZEazY6jpcdj6GC3cfi3H0DRrUYfKHwAAmIShfYn89aRt3/GdePrZX83HgEGW/sDMxd+5PK7Ws4oJcgwBAADQqRf/+gvZcPhb92RDPT+BKXBvfOO6ao89mAjHEAAAAJOn5ycAAAAAUAp6fgIAAAAAA6HrPT8BAAAAAKZTtednV4OfAAAAAADTKe2g6bZ3AAAAAKDUBD8BAAAAgFIS/AQAAAAASknwEwAAAAAoJcFPAAAAAKCUBD8BAAAAgFIS/AQAAAAASknwEwAAAAAoJcFPAAAAAKCUBD8BAAAAgFIS/AQAAAAASknwEwAAAAAoJcFPAAAAAKCUBD8BAAAAgFIS/AQAAAAASknwEwAAAAAoJcFPAAAAAKCUBD8BAAAAgFIS/AQAAAAASknwEwAAAAAoJcFPAAAAAKCUBD8BAAAAgFIS/AQAAAAASknwEwAAAAAoJcFPAAAAAKCUBD8BAAAAgFIS/AQAAAAASknwEwAAAAAoJcFPAAAAAKCUBD8BAAAAgFIS/AQAAAAASknwEwAAAAAoJcFPAAAAAKCUBD8BAAAAgFIS/AQAAAAASknwEwAAAAAoJcFPAAAAAKCUBD8BAAAAgFIS/AQAAAAASknwEwAAAAAoJcFPAAAAAKCUBD8BAAAAgFIS/AQAAAAASknwEwAAAAAoJcFPAAAAAKCUBD8BAAAAgFIS/AQAAAAASknwEwAAAAAoJcFPAAAAAKCUBD8BAAAAgFIS/AQAAAAASknwEwAAAAAoJcFPAAAAAKCUBD8BAAAAgFIS/AQAAAAASknwEwAAAAAoJcFPAAAAAKCUBD8BAAAAgFIS/AQAAAAASknwEwAAAAAoJcFPAAAAAKCUBD8BAAAAgFIS/AQAAAAASknwEwAAAAAoJcFPAAAAAKCUBD8BAAAAgFIS/AQAAAAASknwEwAAAAAoJcFPAAAAAKCUBD8BAAAAgFIS/AQAAAAASknwEwAAAAAoJcFPAAAAAKCUBD8BAAAAgNJZuHBhDG37xrf35eMAAAAAAH1v+Fv3VIKfLzvxHMFPAAAAAKA0/uq8kyvBz4/c8pjgJwAAAABQGv/xx1/Ogp+e+QkAAAAAlM6mTZsEPwEAAACAcvLMTwAAAACgVNJnfqaGnv/FLwU/AQAAAIDSuO7aDdlw6GfPvSD4CQAAAACUxmev/3Q2HHr6Z78Q/AQAAAAASmPjZ6/NhkM/2vtzwU8AAAAAoDRu/dxnsuHQEz99Pgt+nnL6xdmEOzZemg0BAAAAAPrRlk3XZcOh7/3ouSz4+bpF/z2bsOt/rIw9P34+ew0AAAAA0G+23np9Nhza/cN/H7ntfeYhB2TD4Sefy4YAAAAAAP1m+23/kA2Hvv39Zz3zs59975r4wxPeGXfP+WRsv/5tMSOfDAAAAACD6p4v3pANhx587GdZ8HPh2R/MJmzaUBmOdWesOmx+/F0+NuKUT8SXr31bHJqPtq+6vT+J9Y/9Zbwqnzqt/un9ccwffDQfqThp1a64+r8eno/1oD3XxLknvivunnA9AAAAAEC5fPXLn82GQ9/c/W9Z8PPMP/xQNiF95ue3hn+Wva53V1w5a35cE/Pig/d8Ps6YdBfD6vbOj3W7/zJOyKdOl6//5X+Ic/42efFHW+Kb7z+5MvHe98cr/uv9XcrvFNmzPs57zbviK6d8IrasXyz4CQAAAECpvGLWf8hfjfrm7n/LXzW3Y/uN2XBox8N7R257f+WR/3s2vO+Rf82G9e6Kjx51WmyIefGBOzfGwtpg4J71sfS1S+Mr+Wjq1ZffH2v+IO8x2WT+WMvibz8T8Uf/bXXEa9fE5r9fHP9p5D2TeQ9fFv9vdTvJ/L89dVP80YURH/jMwtj634rf+/ufPT0WXLg1e50Z2XaNey+K49P3rb5PZWrFvetj02GLK/ltzMe5t8WO9508Ov21y+LsWB0b7qzMPvsze+NPTqy8Hn/d9vM0ur81qvlqfJ9Ex+UBAAAAAD3i+KMOjB0P7x15naqOF/nmXZ/LhkNffeiZNp/5eVd8/OUL4tqYFxdtvzl+r7aL4eMb4k8+fUR89IK0x+Rjccvbj4vL7o54y7XPxLt/M5k3Z2n800lr4vN/d3a8LFlix8oz4ntv/dMYnpNub1l88qFL4/h0O1+7OH77LasjRpatvme+TPo+6bbSZTPJvly7MP7HtubvfebwGfHGi7bG71x2f3z0zMOS+cn23v5onJnvR9UTN1aWi3M2x1ez7TRRfe98meo62bZfsy3fr7xsoiHPba1b1TpPY8qzuu3a8YK6aLc8AAAAAKBX/PbLD4qvPvTMyOtUdbzIg1+5ORsO3fNgJfj59nddmk34u09cnA3Huiv+5pgFcV0+VvXbl94fV/5+Gkgb9cTnzojfv3hrNu/P4vyR1/XLVbe3LNY8eGm8Mp30tYvjNYsrwc/PXZ0G5BqWeXxDvOd1S+OrI/PHqn3vtz5yXCxNH1LaYvnUfasOqiz39s1xz4qTR8cz8+J9X745TvinynbPWv9M/HH6gNLafflQxIfr9qt+v/9Tvk/trTtWszw13VaT9SdSHgAAAADQK15zzEFxz4OVYGf6OlUdL/Ltr+bBz+07n86Cn+9492XZhPSZn3fc32zlu+KTs/+/uCFeFyv+8eZY0PBwyR/cfEa86QNfzscqXvXnO+PNj86OP/37iDf93dPxzrpfNapub1n89c6/yIOf/z3mvH11kouPxw2fOjte2rjM4xviz/7Lu+NrI/Mrit77wyduqyyfT0tl08+oD9aOrP+HX4jt7632/HwsNr9jdqy6p5LfQ69/cZaPMdJ9uSTiI3X7Vb/f8ZFO1q1ouzyblMlkywMAAAAAesWc2S+O7TufHnmdqo4X2f3PG7Phr/z8hX2RpjUffX8W+ExVp9WniF9mcyNe+GX9vH9e9eIs2HbCB78VX/pfP41rP/i6bLl9yXIv5Cv9cl/9OqPbS5apTjv0/6z88NHIsg3LJNvLIrU122r13j9/6VvjsmRa7fSvfeBT8c/5utX0GzOOzebF33+xbl7yL5Pmt5qPM9dVtjeSPvHW+I0x+1W/352t22F5NqzfjfKQJEmSJEmSJEmSJEmSpF5I1WBnOqy+TqWvmy1fTVW/8otkpJq23PfTLNVOq0153C0L6NVOT/5lDj/0N7PxPY9Ueh3+8pf74rg/WB3/T/L6xnUbYk++/I6P/H584XvNtlcNGkZl/KtfjMrvMlWXaZifpORfptl7V98nnf4fT3hjth/x6v8rDs7XHUmv/PNYeXY68+Ox/J2j+5m8XSZ972b5+MX3NsT7suXH7ldt3jpdN/mXaVqer3l39vrGO+6qLP/db8fXsymV9Vut23Z5SJIkSZIkSZIkSZIkSVIPpNt3/GQkpWrHmy1fTVVDt3z9x9nYij/7q2zCqg+/LxuOdU/8/QlviI3xulh6y43xX+p+Hrw6r+L433ld7PinL8fxF/+v+OAbD4v4/qfjg793fuzI50d1G3s+EL/3zjX5tKVx2df/PF76+TNjyaX5LdtvXRqnf3pNst3KvP+7up3f+VisXf3WeEm2UPF7//7wf46LPp3PyOTbycca/bD2vaveemvcsuw1lddj8pFI9+XCiE/U7Vd1n2rer+11U63L81urf2M0X8m845N5Y9+7YjLlAQAAAAC94vdO+I245es/zsda+/H9t2TDoZvvfSoLfl544YezCemt7xu/+qPsNQAAAABALzjjxIPj5nufysdae2bXF7Lh0A33PDnSD/QPXn1wNvzsV9rbCAAAAABAr3n225uz4dBn7vzh6E3wAAAAAAB97ueP3JYNh9Zv+0EW/PzLP/9INuH9H3hvNgQAAAAA6Ef7hm/PhkNrtz6RBT9XXXZlNiF95ue6L/8gew0AAAAA0G9+7XtbYvHixTF01Zbvj9z2/o7XvywbfuqLT2RDAAAAAIB+87898cVK8PPjmx/3zE8AAAAAoDQOfPIfK8HPv75lj+AnAAAAAFAa/8ePv1QJfn544/cEPwEAAACA0njJ01srwc99iXwaAAAAAEDfW79+fSX4+UvBTwAAAACgRDaMBD9/KfgJAAAAAJTHhg158PMFwU8AAAAAoEQ+nQc/fyUfBwAAAAAolaFf6PkJAAAAAJTItdXb3n/xwi8FPwEAAACA0rj20xsqwc+fC34CAAAAACXymTz46ZmfAAAAAEApCX4CAAAAAKU09PNfuO0dAAAAACiPz1ybP/PzecFPAAAAAKBErhsJfv5c8BMAAAAAKI/rPuMHjwAAAACAEht6Ts9PAAAAAKBErs97fg499/wLgp8AAAAAQGlcf92n481vfnMM/bvgJwAAAABQIv+QBz898xMAAAAAKKWhZ/X8BAAAAABK5Ibqbe/PPif4CQAAAACUxw3Xu+0dAAAAACixoZ/p+QkAAAAAlMhn9fwEAAAAAMps6N/0/AQAAAAASuTGvOfn0L/9+y8EPwEAAACA0rjxH66tBD//VfATAAAAACiRm/Lgp2d+AgAAAAClNLT3WT0/AQAAAIDy+NwNen4CAAAAACU29MzP9PwEAAAAAMrj5s/q+QkAAAAAlJjgJwAAAABQSoKfAAAAAEApDT39bz/3zE8AAAAAoDQ23viZWLx4sZ6fAAAAAEA5CX4CAAAAAKU09FO3vQMAAAAAJbIpv+196Kf/KvgJAAAAAJTHppvy4OdPBD8BAAAAgBL5fB789MxPAAAAAKCUBD8BAAAAgFIa+rHb3gEAAACAErml+szPH+99XvATAAAAACiNWz53XSX4+SPBTwAAAACgRG7Ng5+e+QkAAAAAlNLQU8/o+QkAAAAAlMcXbr4uG+r5CQAAAACUzsKFC2Poyaf1/AQAAAAAymPzRs/8BAAAAABKbOiHen4CAAAAACVy20bP/AQAAAAASip75ucPf/qcnp8AAAAAQGnctun6SvDzB4KfAAAAAECJ3J4HP932DgAAAACU0tATen4CAAAAACWypXrb+xM/EfwEAAAAAMpjy+fz4Of3BT8BAAAAgBL5Yh789MxPAAAAAKCUBD8BAAAAgFIaevzH/+62dwAAAACgNP7xln9w2zsAAAAAUF6CnwAAAABAKQl+AgAAAAClNLTnR575CQAAAACUx5du9cxPAAAAAKDEhr73lJ6fAAAAAEB5bP2Cnp8AAAAAQIkNPabnJwAAAABQIl/Oe34OPfbks4KfAAAAAEBpfHnzDbFw4cL4/wE0bSE5WuNFbAAAAABJRU5ErkJggg==;" vertex="1" parent="1">
          <mxGeometry x="-1640" y="-2270" width="1343" height="599" as="geometry" />
        </mxCell>
      </root>
    </mxGraphModel>
  </diagram>
</mxfile>
